SplineFontDB: 3.0
FontName: Hickes
FullName: Hickes
FamilyName: Hickes
Weight: Regular
Copyright: Copyright (c) 2017, Peter Baker,,,
UComments: "2017-9-16: Created with FontForge (http://fontforge.org)"
Version: 001.000
ItalicAngle: 0
UnderlinePosition: -204.8
UnderlineWidth: 102.4
Ascent: 1638
Descent: 410
InvalidEm: 0
LayerCount: 2
Layer: 0 0 "Back" 1
Layer: 1 0 "Fore" 0
XUID: [1021 885 -1859028109 11184023]
OS2Version: 0
OS2_WeightWidthSlopeOnly: 0
OS2_UseTypoMetrics: 1
CreationTime: 1505595888
ModificationTime: 1507168702
OS2TypoAscent: 0
OS2TypoAOffset: 1
OS2TypoDescent: 0
OS2TypoDOffset: 1
OS2TypoLinegap: 0
OS2WinAscent: 0
OS2WinAOffset: 1
OS2WinDescent: 0
OS2WinDOffset: 1
HheadAscent: 0
HheadAOffset: 1
HheadDescent: 0
HheadDOffset: 1
OS2Vendor: 'PfEd'
MarkAttachClasses: 1
DEI: 91125
Encoding: UnicodeFull
UnicodeInterp: none
NameList: AGL For New Fonts
DisplaySize: -36
AntiAlias: 1
FitToEm: 0
WinInfo: 64 16 10
BeginPrivate: 0
EndPrivate
Grid
843 1439 m 25
 291 -146 l 1053
1777 1378 m 25
 -263 1378 l 1049
-180 858 m 25
 2560 858 l 1049
EndSplineSet
BeginChars: 1114112 101

StartChar: a
Encoding: 97 97 0
Width: 979
VWidth: 0
Flags: HW
LayerCount: 2
Fore
SplineSet
204 212 m 0
 204 166 229 129 277 129 c 0
 342 129 390.249023438 177.745117188 425 212 c 0
 495 281 587 387 647 490 c 1
 716 652 l 1
 716 708 674 780 597 780 c 0
 521.368164062 780 440.48046875 684.409179688 402 634 c 0
 345.076131263 559.430078664 294 469 249 374 c 0
 225.439689406 324.261566523 204 273 204 212 c 0
57 118 m 0
 57 206 91 280 123 354 c 0
 194 519 295 676 431 780 c 0
 478 816 533 854 610 854 c 0
 672 854 726 816 762 762 c 1
 827 913 l 1
 927 868 l 1
 693 287 l 1
 684 261 669 221 669 186 c 0
 669 154 663 132 699 132 c 0
 725.593237914 132 749.6171875 154.969726562 774.387695312 188 c 0
 814.819335938 241.913085938 852.248056225 322.627372423 869 374 c 1
 937 366 l 1
 900 230 856.109375 172.432617188 801 104 c 0
 757.161132812 49.5625 679 -35 609 -35 c 0
 551 -35 519 13 519 74 c 0
 519 127 534 172 548 215 c 1
 520 226 l 1
 458 156 391 84 314 30 c 0
 276 4 238 -19 183 -19 c 0
 103 -19 57 38 57 118 c 0
EndSplineSet
EndChar

StartChar: e
Encoding: 101 101 1
Width: 698
VWidth: 0
Flags: HW
LayerCount: 2
Fore
SplineSet
578 689 m 0
 578 732 554 771 498 771 c 0
 447 771 409 730 384 700 c 0
 332 637 292 560 262 478 c 1
 271 477 281 477 290 477 c 0
 409 477 500 523 550 599 c 0
 566 623 578 658 578 689 c 0
240 408 m 1
 215 348 186 289 186 212 c 0
 186 149 211 90 275 90 c 0
 304 90 327 100 348 111 c 0
 412 146 470 192 524 238 c 1
 564 198 l 1
 487 126 402 57 307 6 c 0
 268 -15 226 -32 182 -32 c 0
 91 -32 57 37 57 128 c 0
 57 234 82 322 116 414 c 0
 159 532 223 645 302 732 c 0
 341 775 386 814 440 834 c 0
 462 842 485 847 508 847 c 0
 603 847 665 773 665 680 c 0
 665 579 598 516 532 477 c 0
 456 433 372 408 263 408 c 0
 255 408 248 408 240 408 c 1
EndSplineSet
EndChar

StartChar: b
Encoding: 98 98 2
Width: 821
VWidth: 0
Flags: HW
LayerCount: 2
Fore
SplineSet
657 692 m 0
 657 751 615 779 565 779 c 0
 547 779 529 776 510 769 c 0
 467 753 427 731 393 701 c 0
 315 634 277 525 247 416 c 0
 228 346 208 275 208 193 c 0
 208 136 231 80 285 80 c 0
 335 80 366 115 389 144 c 0
 458 230 514 327 565 430 c 0
 598 496 629 567 649 643 c 0
 653 659 657 675 657 692 c 0
255 -34 m 0
 142 -34 78 51 78 163 c 0
 78 260 105 344 126 432 c 0
 198 728 324 978 398 1270 c 0
 403 1289 406 1309 406 1327 c 0
 406 1375 387 1416 342 1428 c 1
 342 1446 l 1
 376 1464 414 1473 454 1473 c 0
 475 1473 497 1470 520 1466 c 0
 545 1461 551 1451 551 1434 c 0
 551 1423 549 1409 546 1394 c 0
 530 1296 496 1201 466 1112 c 0
 426 990 376 871 339 746 c 1
 353 739 l 1
 393 774 437 804 484 827 c 0
 525 847 572 864 621 864 c 0
 715 864 781 802 781 709 c 0
 781 679 775 649 766 620 c 0
 712 440 638 264 528 132 c 0
 480 75 425 21 358 -10 c 0
 326 -25 290 -34 255 -34 c 0
EndSplineSet
EndChar

StartChar: c
Encoding: 99 99 3
Width: 754
VWidth: 0
Flags: HW
LayerCount: 2
Fore
SplineSet
57 157 m 0
 57 215 69 272 85 328 c 0
 121 455 170 580 246 672 c 0
 278 711 313 746 351 778 c 0
 394 815 448 856 523 856 c 0
 620 856 680 787 680 688 c 0
 680 660 671 633 645 633 c 0
 579 633 562 747 497 747 c 0
 487 747 475 744 462 737 c 0
 419 713 388 663 363 622 c 0
 302 519 265 401 237 270 c 0
 233 253 231 233 231 213 c 0
 231 171 242 131 283 131 c 0
 305 131 321 140 335 150 c 0
 410 204 463 284 513 362 c 1
 579 334 l 1
 520 230 462 119 373 42 c 0
 334 9 290 -19 241 -32 c 0
 227 -36 212 -38 197 -38 c 0
 96 -38 57 59 57 157 c 0
EndSplineSet
EndChar

StartChar: d
Encoding: 100 100 4
Width: 970
VWidth: 0
Flags: HW
LayerCount: 2
Fore
SplineSet
720.82421875 644.8359375 m 0
 720.82421875 700.1171875 691.256835938 774.8828125 632.629882812 774.8828125 c 0
 577.122070312 774.8828125 534.614257812 726.498046875 502.684570312 698 c 0
 380.002929688 588.5 277.91015625 444.834960938 225.684570312 268 c 0
 218.209960938 242.6875 212.403320312 218.817382812 212.403320312 190.322265625 c 0
 212.403320312 142.889648438 236.541992188 93.58984375 285.35546875 93.58984375 c 0
 361.420898438 93.58984375 465.512695312 213.637695312 506.684570312 262 c 0
 547.220703125 309.614257812 584.280273438 359.92578125 615.684570312 414 c 0
 642.307617188 459.83984375 670.837890625 504.65625 694.684570312 552 c 0
 707.713867188 577.8671875 720.82421875 608.721679688 720.82421875 644.8359375 c 0
  Spiro
    225.685 268 o
    224.685 134 o
    274.685 95 o
    333.685 108 o
    506.685 262 o
    615.685 414 o
    694.685 552 o
    718.685 670 o
    688.685 742 o
    650.685 772 o
    608.685 771 o
    502.685 698 o
    354.685 531 o
    280.685 406 o
    0 0 z
  EndSpiro
765.27734375 126.94921875 m 0
 811.109375 126.94921875 855.735351562 140.08984375 894.684570312 162 c 1
 918.684570312 96 l 1
 855.645507812 39.751953125 785.30078125 -27.1103515625 696.684570312 -54 c 0
 673.704101562 -60.9736328125 649.584960938 -65.521484375 625.624023438 -65.521484375 c 0
 576.709960938 -65.521484375 532.274414062 -48.3564453125 532.274414062 0.501953125 c 0
 532.274414062 48.869140625 555.36328125 91.53125 571.684570312 130 c 0
 591.6640625 177.08984375 614.41015625 222.974609375 638.684570312 268 c 1
 614.684570312 284 l 1
 569.947265625 222.98828125 515.640625 169.4140625 456.684570312 122 c 0
 403.580078125 79.291015625 349.734375 37.27734375 292.684570312 0 c 0
 261.529296875 -20.357421875 227.221679688 -41.4072265625 179.642578125 -41.4072265625 c 0
 99.33984375 -41.4072265625 57 23.5732421875 57 103.530273438 c 0
 57 199.494140625 90.4150390625 280.772460938 123.684570312 362 c 0
 183.379882812 507.744140625 278.78125 634.408203125 388.684570312 734 c 0
 450.990234375 790.459960938 524.43359375 864 634.684570312 864 c 0
 683.717773438 864 741.684570312 836 756.684570312 783 c 1
 778.684570312 778 l 1
 814.719726562 866.293945312 848.044921875 955.692382812 878.684570312 1046 c 0
 901.891601562 1114.40039062 927.092773438 1182.70605469 938.684570312 1254 c 0
 941.282226562 1269.97265625 942.940429688 1286.16503906 942.940429688 1302.33105469 c 0
 942.940429688 1357.18554688 922.654296875 1399.23046875 890.684570312 1426 c 1
 906.684570312 1481 l 1
 938.484375 1484.84570312 981.626953125 1492.10546875 1021.17675781 1492.10546875 c 0
 1076.72070312 1492.10546875 1125.17773438 1477.78613281 1125.17773438 1419.58105469 c 0
 1125.17773438 1370.61132812 1105.58789062 1327.56542969 1092.68457031 1286 c 0
 1066.60839844 1201.99609375 1033.48925781 1120.38769531 1002.68457031 1038 c 0
 934.221679688 854.89453125 884.82421875 665.345703125 818.684570312 482 c 0
 785.409179688 389.754882812 756.845703125 295.221679688 722.684570312 202 c 0
 718.25 189.896484375 715.794921875 178.439453125 715.794921875 168.290039062 c 0
 715.794921875 143.817382812 730.069335938 126.94921875 765.27734375 126.94921875 c 0
EndSplineSet
EndChar

StartChar: f
Encoding: 102 102 5
Width: 601
VWidth: 0
Flags: HW
LayerCount: 2
Fore
SplineSet
142.086387325 763.874217362 m 0
 142.086387325 815.610648584 204.09020196 832.771258606 258.586916282 832.771258606 c 0
 290.442002007 832.771258606 322.087967198 829.36793679 353.165778016 827.591402183 c 1
 395.09231786 981.907326778 437.897699459 1118.84106717 523 1242 c 0
 569.141901974 1308.77595517 623.562284422 1369.8207988 684 1424 c 0
 755.419184808 1488.02350496 829.479595584 1534.67811137 953.16986477 1534.67811137 c 0
 1087.58397319 1534.67811137 1215.07261987 1488.04515135 1215.07261987 1357.77706902 c 0
 1215.07261987 1301.16215616 1176.28909238 1240.55350333 1124.92525663 1240.55350333 c 0
 1063.54418346 1240.55350333 1033.69287116 1305.96572933 1029 1362 c 0
 1024.44438907 1416.39534297 997.973539113 1448.26611064 943.153617525 1448.26611064 c 0
 853.50112964 1448.26611064 796.288142938 1389.95375811 751.699616855 1339.37139731 c 0
 633.035774762 1204.75610945 573.645530771 1010.19997625 516.05147566 823.727293835 c 1
 598.446387442 821.643906998 673.521503112 809.675579895 757.787827194 809.675579895 c 0
 766.192519825 809.675579895 774.59720469 809.780864482 783 810 c 1
 774 689 l 1
 677.80702456 702.209649984 580.223649554 700.663296068 481.722861592 710.400803138 c 1
 428.349520001 530.048882603 383.416792445 336.855973469 342 147 c 0
 315.441570324 25.2552626046 295.081257126 -97.8331243521 266 -219 c 0
 249.393872614 -288.18932573 225.390711298 -356.851475458 183 -414 c 0
 138.78586464 -473.60675163 78.6643655308 -519.859428858 15 -558 c 0
 -36.7888654207 -589.026098972 -94.1024584723 -615.501237807 -173.217186656 -615.501237807 c 0
 -229.079092025 -615.501237807 -288.213796348 -604.448504469 -288.213796348 -547.078528972 c 0
 -288.213796348 -530.684415787 -284.210327269 -516.427217745 -282 -501 c 0
 -276.934762429 -465.646627663 -276.52235704 -389.103789776 -237.804886808 -389.103789776 c 0
 -203.543792386 -389.103789776 -182.792852119 -427.24389447 -165 -447 c 0
 -142.698002182 -471.762787859 -111.443251798 -489.486826135 -75.7316604506 -489.486826135 c 0
 -61.7071962488 -489.486826135 -46.9953767449 -486.753340291 -31.8685027836 -480.639199931 c 0
 45.9848237806 -449.171616657 77.7696392243 -361.98606315 99 -276 c 0
 137.528091209 -119.955601189 168.028038924 38.7241174958 201 198 c 0
 237.538440983 374.504285551 282.002708565 551.328104268 325.976683902 723.870485371 c 1
 292.312386663 721.559814928 246.44970016 704.790055185 208.534186024 704.790055185 c 0
 175.060883801 704.790055185 142.086387325 724.969563166 142.086387325 763.874217362 c 0
EndSplineSet
EndChar

StartChar: i
Encoding: 105 105 6
Width: 611
VWidth: 0
Flags: HW
LayerCount: 2
Fore
SplineSet
591.947307669 1321.61599393 m 0
 591.947307669 1282.80532888 559.330835823 1251.14589989 517.188130313 1251.14589989 c 0
 472.585103007 1251.14589989 426.971859695 1283.76371289 413.918894428 1317.9389741 c 0
 393.197607291 1372.19142832 454.636237851 1400.28726451 501.235383384 1400.28726451 c 0
 550.01569732 1400.28726451 591.947307669 1369.2009419 591.947307669 1321.61599393 c 0
  Spiro
    510 1401 o
    567 1378 o
    593 1326 o
    563 1265 o
    502 1253 o
    432 1291 o
    412 1350 o
    457 1392 o
    0 0 z
  EndSpiro
112 601 m 1
 193.354043949 688.019576688 268.25338684 780.819139173 383 834 c 0
 409.396943537 846.234018433 448.801887766 859.33785793 482.948002389 859.33785793 c 0
 520.826749816 859.33785793 552.234104908 843.212580474 552.234104908 791.886648298 c 0
 552.234104908 753.890243162 537.484945312 722.846547521 522 691 c 0
 460.127082526 563.751322857 385.913669032 442.53713132 321 317 c 0
 300.40338859 277.168027014 272.275892031 232.12416717 272.275892031 180.793256135 c 0
 272.275892031 153.927614678 289.703207494 134.176885626 316.65223806 134.176885626 c 0
 368.215288471 134.176885626 409.803260791 181.857391389 437 211 c 0
 464.462801945 240.427707576 487.85556461 273.59257059 507 309 c 1
 542 295 l 1
 502.844755389 167.725071867 403.68409365 75.791685946 300 9 c 0
 269.844901398 -10.4254470922 226.119213954 -39.9978248394 180.814695015 -39.9978248394 c 0
 124.718759396 -39.9978248394 93.4023389623 1.92497188321 93.4023389623 49.0044365455 c 0
 93.4023389623 109.681834179 131.452706643 185.185547476 150 228 c 0
 195.77062527 333.656616567 246.50273555 433.271648765 297 534 c 0
 310.111323181 560.153534868 322.715729166 586.611170981 333 614 c 0
 336.414739445 623.094054047 338.493606512 632.878678429 338.493606512 641.867269122 c 0
 338.493606512 659.674549497 330.334573256 674.35759675 308.23948921 674.35759675 c 0
 276.00320919 674.35759675 253.465456382 652.013233991 236 635 c 0
 211.180166594 610.822811375 187.800408793 585.203075969 163 561 c 1
 112 601 l 1
  Spiro
    204 348 o
    297 534 o
    333 614 c
    330 667 c
    302 674 c
    236 635 c
    190 588 c
    163 561 v
    112 601 v
    208 703 o
    298 784 o
    383 834 o
    468 861 o
    533 842 o
    552 784 o
    522 691 o
    432 523 o
    321 317 o
    276 206 c
    275 163 c
    298 138 c
    363 150 c
    437 211 o
    507 309 v
    542 295 v
    439 122 o
    300 9 o
    208 -35 o
    138 -30 o
    103 5 o
    97 87 o
    150 228 o
    0 0 z
  EndSpiro
EndSplineSet
EndChar

StartChar: g
Encoding: 103 103 7
Width: 1034
VWidth: 0
Flags: HW
LayerCount: 2
Fore
SplineSet
314 180 m 1
 241.182658365 203.885718381 203.616354873 278.609386515 203.616354873 370.629475809 c 0
 203.616354873 575.872120725 277.573495489 703.950148976 402 789 c 0
 459.390072307 828.228113971 520.410934734 859.30990701 598.543716067 859.30990701 c 0
 714.976695716 859.30990701 790.0623836 783.216101151 813.960013872 690.576563891 c 1
 867.854573396 697.766086476 911.53758551 711.099188756 943 742 c 1
 966 745 l 1
 972.627516118 722.129136294 975.979597373 698.455890071 976.000379018 674.564262249 c 0
 976.000379018 644.40464631 970.553609109 614.252937371 960 586 c 1
 929 585 l 1
 917.857133951 624.988111319 878.473634633 638.18105563 827.944478774 638.18105563 c 0
 826.000932059 638.18105563 824.040895691 638.161537077 822.065342477 638.123274021 c 1
 822.436122165 631.925054989 822.61599072 625.711593355 822.61599072 619.49484613 c 0
 822.61599072 541.842358302 800.828872421 484.203612597 774.393137048 423.382756815 c 0
 721.742902676 302.250045116 656.632768575 186.638817584 516 153 c 0
 456.351056726 138.732202088 365.992421202 129.524376066 365.992421202 55.1833189542 c 0
 365.992421202 10.5562291472 405.098190274 -15.424736474 435 -33 c 0
 472.113881431 -54.8142732033 509.025491507 -76.9503190054 546 -99 c 0
 686.346114353 -182.695150427 872.934597871 -214.963285653 929.363825839 -384.187477623 c 0
 936.78727566 -406.449474517 940.73044719 -429.91171477 940.73044719 -453.362070638 c 0
 940.73044719 -551.548016582 877.979637694 -615.873815874 816 -657 c 0
 745.493443171 -703.784165673 663.209291607 -730.632940953 580 -746 c 0
 533.24130022 -754.635378172 485.6884411 -759.010706312 438.145530064 -759.010706312 c 0
 392.856295727 -759.010706312 347.576088689 -755.040353991 303 -747 c 0
 157.646533291 -720.78205759 -24.6830228551 -661.901725933 -75 -531 c 0
 -84.2139496125 -507.029523724 -88.5048350302 -481.31495694 -88.5048350302 -455.612142132 c 0
 -88.5048350302 -414.851915278 -79.7313801171 -382.196716381 -66 -348 c 0
 -44.6968212848 -294.94642823 -10.5568587317 -246.180804782 36 -213 c 0
 99.3101437573 -167.879225575 175.630290375 -152.806326105 272.573343107 -152.806326105 c 0
 286.390506311 -152.806326105 300.209178257 -153.217184797 314 -154 c 1
 324 -96 l 1
 300.830008383 -74.7632194968 274.557975356 -57.2931477165 249 -39 c 0
 225.423340376 -22.1249811006 198.043452399 5.25508823429 198.043452399 37.7993862735 c 0
 198.043452399 96.7297875102 270.487991912 125.347712558 313 143 c 1
 314 180 l 1
352.926675854 344.388269584 m 0
 352.926675854 294.084936948 383.895660531 253.86496711 434.218744536 253.86496711 c 0
 483.367630281 253.86496711 517.471251566 285.040763988 543 315 c 0
 590.462338078 370.699377187 623.455331688 454.34959414 638 537 c 0
 642.879905997 564.730175938 646.771175446 592.863268609 646.771175446 620.975994914 c 0
 646.771175446 669.31328244 627.408829314 723.027001223 582.337143039 723.027001223 c 0
 553.118317858 723.027001223 529.859849002 704.423226675 514 688 c 0
 444.307342432 615.831701761 398.103954255 522.595292417 366 416 c 0
 359.126569715 393.178035288 352.926675854 368.408784605 352.926675854 344.388269584 c 0
320.439785102 -224.392167398 m 0
 209.843772454 -224.392167398 137.85011982 -291.681882609 137.85011982 -400.414847767 c 0
 137.85011982 -477.756290928 171.808906845 -532.457762026 214 -576 c 0
 272.801780949 -636.684873225 359.110411495 -675.462874782 472.634617752 -675.462874782 c 0
 593.274990348 -675.462874782 698.014762932 -629.397983185 756 -562 c 0
 775.285132202 -539.584311428 788.875537488 -509.199413947 788.875537488 -477.252014101 c 0
 788.875537488 -458.922854792 784.402047544 -440.079373911 773.96395473 -421.931489402 c 0
 747.139248497 -375.293499167 697.258390256 -341.884860714 652.88508672 -313.223492829 c 0
 567.343429169 -257.970880982 451.91799364 -224.392167398 320.439785102 -224.392167398 c 0
EndSplineSet
EndChar

StartChar: h
Encoding: 104 104 8
Width: 1016
VWidth: 0
Flags: HW
LayerCount: 2
Fore
SplineSet
118.643458511 -78.535038683 m 0
 80.2008162816 -78.535038683 65.768783179 -51.3920067184 65.768783179 -20.9993673443 c 0
 65.768783179 3.40019127187 73.6192850738 31.1461739021 81 53 c 2
 510 1269 l 1
 519.642423246 1292.10399502 524.94004872 1317.14321848 524.94004872 1342.14981391 c 0
 524.94004872 1408.35846499 487.041382981 1466.45752998 422 1468 c 1
 418 1507 l 1
 506.900550564 1509.21331636 591.711571663 1512.07130284 666 1531 c 0
 681.030666314 1534.82981491 703.318421334 1542.40492056 721.70373597 1542.40492056 c 0
 739.696056932 1542.40492056 754.00774 1535.00879312 754.00774 1510.10126476 c 0
 754.00774 1483.7914489 734.156549604 1460.98636346 723 1443 c 0
 698.696266612 1403.81801294 678.250517628 1362.34168363 660 1320 c 0
 577.94570469 1129.63186451 525.316161917 928.009158147 455 733 c 1
 487 709 l 1
 545.921321477 786.295354276 644.169073243 872.880167674 771.79667057 872.880167674 c 0
 872.744655774 872.880167674 945.183073902 805.282602809 945.183073902 702.211303864 c 0
 945.183073902 613.333613707 898.472266137 536.759493583 870 469 c 0
 848.80099035 418.549707373 830.296524331 366.974944113 808 317 c 0
 778.695431573 251.317378454 743.035862375 188.654759767 706 127 c 0
 676.537479097 77.9528189189 643.360445153 29.8725698152 598 -5 c 0
 566.807323044 -28.9805584185 531.073738086 -46.170721428 496 -64 c 0
 483.311147626 -70.4502130677 464.481916785 -79.1007602575 448.330057907 -79.1007602575 c 0
 413.287877551 -79.1007602575 414.605047401 -28.2741711093 406 0 c 0
 397.438377842 28.1314859291 375.16073611 58.2184493861 375.16073611 89.7018730612 c 0
 375.16073611 111.009796879 398.390838088 119.340375281 421.363778446 119.340375281 c 0
 446.493828594 119.340375281 472.953088512 110.140980105 498.429518308 110.140980105 c 0
 536.070395386 110.140980105 554.096678109 132.390472942 571 155 c 0
 660.408475404 274.590892068 719.367574253 415.863966101 777 564 c 0
 790.478804982 598.64536996 805.657698095 644.922797488 805.657698095 685.420101161 c 0
 805.657698095 733.362401009 779.2911115 775.21355472 717.667406811 775.21355472 c 0
 685.830261681 775.21355472 657.254086142 761.493859619 633.101316827 748.198888913 c 0
 610.097283608 735.536243741 588.584278739 720.30385218 568 704 c 0
 490.412689217 642.546690797 423.607745014 566.774435298 376 480 c 0
 334.248870994 403.900393906 306.144638948 321.223062333 273 241 c 0
 258.269637892 205.346730116 243.365877388 169.728154003 230.945808975 133.205816703 c 0
 211.363184117 75.621332747 203.406976295 10.1309630588 175 -40 c 0
 164.289411981 -58.9014165661 146.098853635 -78.535038683 118.643458511 -78.535038683 c 0
  Spiro
    81 53 v
    510 1269 v
    523 1368 o
    487 1441 o
    422 1468 v
    418 1507 v
    558 1513 o
    666 1531 o
    713 1542 c
    727 1543 c
    743 1536 c
    754 1511 c
    746 1482 c
    723 1443 c
    660 1320 o
    455 733 v
    487 709 v
    611 822 o
    752 872 o
    874 844 o
    945 711 o
    870 469 o
    808 317 o
    706 127 o
    598 -5 o
    496 -64 c
    456 -79 c
    427 -71 c
    416 -41 c
    406 0 c
    381 68 c
    376 96 c
    389 112 c
    413 119 c
    485 111 c
    529 116 c
    571 155 c
    689 354 o
    777 564 o
    807 675 o
    781 752 o
    707 774 o
    568 704 o
    376 480 o
    273 241 o
    199 22 o
    175 -40 c
    147 -71 c
    105 -77 c
    74 -58 c
    68 6 c
    0 0 z
  EndSpiro
EndSplineSet
EndChar

StartChar: j
Encoding: 106 106 9
Width: 611
VWidth: 0
Flags: HW
LayerCount: 2
Fore
SplineSet
435.36263323 866.043884311 m 0
 472.697108826 866.043884311 501.655122494 835.866846255 501.655122494 787.613991871 c 0
 501.655122494 758.008848034 492.621710974 728.829626517 482.922765489 700.707375542 c 2
 151 -357 l 2
 122 -451 81.845703125 -561.020507812 29 -631 c 0
 -36.9765625 -718.3671875 -113.624548277 -734.714880906 -243 -753 c 0
 -268.082931785 -756.545065071 -305.025245618 -763.590186632 -338.2733347 -763.590186632 c 0
 -379.624643915 -763.590186632 -415.261581735 -752.692516934 -415.261581735 -710.609999471 c 0
 -415.261581735 -668.296014828 -395.506161139 -651.569649175 -362 -645 c 0
 -298.357768577 -632.521485035 -193.860515065 -620.988991321 -141 -588 c 0
 -42.7576517785 -526.68928502 5 -365 43 -243 c 2
 281.733398438 517.45703125 l 2
 292.142578125 549.452148438 307 596.978515625 307 635 c 0
 307 655.142578125 304.629882812 699 284 699 c 0
 249.767578125 699 208.126069399 663.091722363 192 643 c 0
 170.301757813 615.965820312 139.634765625 586.005859375 118 559 c 1
 62 595 l 1
 133.305664062 692.887695312 205.487304688 765.0390625 310 830 c 0
 335.889648438 846.091796875 397.491973098 866.043884311 435.36263323 866.043884311 c 0
389.827157224 1401.82348888 m 0
 431.571336335 1401.82348888 476.008124684 1380.03700639 476.008124684 1326.80407964 c 0
 476.008124684 1288.41203322 444.184211222 1255.38781885 398.179621366 1255.38781885 c 0
 351.856850594 1255.38781885 292.188732219 1287.84113008 292.188732219 1335.9608488 c 0
 292.188732219 1375.13106996 342.022010493 1401.82348888 389.827157224 1401.82348888 c 0
EndSplineSet
EndChar

StartChar: u
Encoding: 117 117 10
Width: 992
VWidth: 0
Flags: HW
LayerCount: 2
Fore
SplineSet
168.225357026 -52.7574814716 m 0
 101.842337374 -52.7574814716 66.9872647143 2.73885329016 66.9872647143 72.5119235215 c 0
 66.9872647143 122.395557731 85.2139502298 155.688858365 104 195 c 0
 125.090913949 239.134233412 144.553814903 284.037307238 166 328 c 0
 198.616883149 394.861588962 233.603706025 460.556646959 265 528 c 0
 280.172663419 560.592868965 297.088698418 592.447010356 310 626 c 0
 313.942747028 636.246135866 319.852122381 656.984078741 319.852122381 674.369126227 c 0
 319.852122381 690.090084009 315.019889938 703.069301945 299.531506796 703.069301945 c 0
 273.178771479 703.069301945 253.466729254 679.454518785 238 666 c 0
 202.766642891 635.350477577 169.354981071 602.607048993 138 568 c 1
 106 590 l 1
 153.386120891 671.663391644 211.162833393 749.465134769 290 800 c 0
 322.725515955 820.977155948 357.700819485 843.25474668 396.633736613 856.062578726 c 0
 408.727750302 860.041168247 420.227064061 861.900279021 430.975537931 861.900279021 c 0
 482.363638887 861.900279021 516.589306473 819.405380654 516.589306473 762.869028822 c 0
 516.589306473 692.595492784 482.979490274 638.134292044 455 582 c 0
 402.389199803 476.448755357 348.620262113 371.455823719 292 268 c 0
 272.566928503 232.492138607 240.055215041 191.726016037 240.055215041 141.890969931 c 0
 240.055215041 107.274837063 262.90305639 83.3457863947 298.50973033 83.3457863947 c 0
 343.009971113 83.3457863947 376.702455435 109.147416129 406 132 c 0
 507.6871051 211.317674311 565.256875266 343.89474458 623 464 c 0
 664.183966379 549.662333376 699.947431786 637.802864168 740 724 c 0
 759.545352963 766.063555956 786.422874423 842.448477723 848.625168184 842.448477723 c 0
 882.825899041 842.448477723 938.994637969 829.025636989 940 793 c 0
 940.448576335 776.925941381 933.631374361 761.649281733 927 747 c 0
 866.990582629 614.433986701 814.381528243 478.302918583 753 348 c 0
 725.862447855 290.391427048 692.141111733 235.707332759 670 176 c 0
 665.757706627 164.559923045 659.33730657 145.049279349 659.33730657 128.653358286 c 0
 659.33730657 112.849878326 665.302106929 99.9400963465 684.931407037 99.9400963465 c 0
 696.929648551 99.9400963465 705.592901579 104.09633242 715 109 c 0
 789.424897303 147.795698712 865.586498371 208.320530774 889 297 c 1
 923 302 l 1
 929.482788888 287.185420863 932.603106345 271.086144629 932.603106345 254.93490729 c 0
 932.603106345 193.843801704 894.204557677 157.08342389 860 126 c 0
 807.774709601 78.5402183369 750.538439683 31.7941209605 684 0 c 0
 650.58574757 -15.9663615292 616.609168207 -30.8226542125 582 -44 c 0
 565.871243727 -50.1409796752 550.156772832 -53.2654096948 535.47834276 -53.2654096948 c 0
 510.181353247 -53.2654096948 487.961560967 -43.9853821158 472.001604297 -24.8731095394 c 0
 451.331993338 -0.120959714736 434.106442421 40.6397083117 391.493440244 40.6397083117 c 0
 359.57615696 40.6397083117 338.809081573 21.0275696617 319 7 c 0
 285.389918964 -16.8005861774 223.602183289 -52.7574814716 168.225357026 -52.7574814716 c 0
  Spiro
    166 328 c
    265 528 o
    310 626 o
    320 674 c
    308 700 c
    274 694 c
    238 666 c
    138 568 v
    106 590 v
    184 704 o
    290 800 o
    360 840 o
    436 862 o
    506 814 o
    515 740 o
    455 582 o
    292 268 o
    242 160 o
    252 104 o
    320 86 o
    406 132 o
    506 244 o
    623 464 o
    740 724 o
    791 811 c
    814 833 c
    857 842 c
    906 828 c
    933 814 c
    940 793 c
    927 747 c
    900 686 c
    848 560 o
    753 348 o
    670 176 o
    660 139 c
    665 109 c
    715 109 c
    781 153 c
    850 218 c
    889 297 v
    923 302 v
    922 204 o
    860 126 o
    684 0 o
    582 -44 o
    495 -45 o
    454 0 o
    430 27 c
    382 40 c
    319 7 c
    219 -43 c
    159 -51 c
    99 -25 c
    71 39 c
    68 93 c
    104 195 c
    0 0 z
  EndSpiro
EndSplineSet
EndChar

StartChar: l
Encoding: 108 108 11
Width: 608
VWidth: 0
Flags: HW
LayerCount: 2
Fore
SplineSet
165.64207333 -47.1194217247 m 0
 102.908015018 -47.1194217247 69.9671072398 1.71256655146 69.9671072398 65.4129312177 c 0
 69.9671072398 122.687229193 86.4572787448 178.806535633 102 234 c 0
 140.747303933 371.594820357 206.462444663 499.709509149 263 631 c 0
 339.391101903 808.394038451 413.542535483 985.665589904 490.595793596 1161.78004717 c 0
 499.725560078 1182.64722278 516.149799943 1212.54120787 516.149799943 1240.84989593 c 0
 516.149799943 1292.94552624 454.6879938 1313.14045015 406.736399415 1313.14045015 c 0
 400.475940901 1313.14045015 394.21578876 1312.76311225 388 1312 c 1
 386 1379 l 1
 434.356898331 1380.76680288 490.5625 1384.72460938 535 1389 c 0
 583.919921875 1393.70605469 651.789706567 1408.22286147 669.156838491 1408.22286147 c 0
 696.701408594 1408.22286147 706.206074797 1391.07824842 706.206074797 1367.11725864 c 0
 706.206074797 1321.86776948 672.309585285 1252.30903708 662 1228 c 0
 588.428468802 1054.52521604 512.938938495 880.018172829 440 705 c 0
 380.119419534 561.315570295 310.538817074 421.528399831 258 275 c 0
 249.61365966 251.610873658 228.955404033 206.570893085 228.955404033 171.171688996 c 0
 228.955404033 145.223386864 242.668934422 121.483496946 276.697881341 121.483496946 c 0
 304.834013897 121.483496946 327.376974924 143.692288293 342 159 c 0
 388.601904498 207.783922298 426.220322015 265.032596257 466 320 c 1
 514 295 l 1
 465.210948631 185.28415899 391.969700003 83.4845688348 300 14 c 0
 268.485828906 -9.80945670784 217.222955031 -47.1194217247 165.64207333 -47.1194217247 c 0
EndSplineSet
EndChar

StartChar: m
Encoding: 109 109 12
Width: 1320
VWidth: 0
Flags: HW
LayerCount: 2
Fore
SplineSet
334.284172524 682.758014807 m 0
 334.284172524 699.418485981 323.052290453 713.093605954 300.905441986 713.093605954 c 0
 255.353264051 713.093605954 236.562820423 633.858311667 217 604 c 0
 199.779786617 577.717159027 174.786498389 556.596070383 146 544 c 1
 119 567 l 1
 146.758004121 578.123401124 167.16115624 600.862199561 179 628 c 0
 190.560247684 654.499183622 194.828425287 683.775987566 207 710 c 0
 222.028727897 742.379832236 247.674902378 766.45716435 275 787 c 0
 301.934858631 807.249456443 336.785991474 836.355339344 380.398253034 836.355339344 c 0
 433.65226508 836.355339344 453.656753646 800.432917029 472 765 c 0
 479.661468965 750.200646117 491.05572849 737.320653308 507.356840864 737.320653308 c 0
 533.249316946 737.320653308 553.177970445 763.067825858 569 776 c 0
 611.557694662 810.784634711 670.211792589 839.346770039 737.395696375 839.346770039 c 0
 824.419968264 839.346770039 868.492549618 770.810423178 908 711 c 1
 959.076426364 752.356786135 1017.32799198 788.388048702 1078 819 c 0
 1104.77575835 832.509660174 1130.37340268 845.277405132 1165.16493595 845.277405132 c 0
 1221.57324785 845.277405132 1245.19710397 803.535598601 1259 760 c 0
 1267.27421685 733.902362027 1273.0765481 706.753108824 1273.0765481 679.408350041 c 0
 1273.0765481 631.653943633 1255.73685185 589.500376566 1238 547 c 0
 1191.71821056 436.101318735 1144.95934195 324.427545513 1089 221 c 0
 1078.99766922 202.51306849 1062.64515907 171.408032732 1062.64515907 143.913716225 c 0
 1062.64515907 128.737195026 1067.62761008 114.660824912 1081.41076971 104.414054684 c 0
 1098.60283417 91.6330132542 1116.66835946 108.161335759 1125 117 c 0
 1150.5349864 144.088923243 1177.37955583 176.660541039 1185 219 c 0
 1187.70298551 234.017883653 1198.41192345 239.752568447 1210.59119414 239.752568447 c 0
 1239.27302076 239.752568447 1272.1846496 208.504771192 1250 175 c 0
 1244.90556736 167.306040305 1236.76350233 162.277363769 1230 156 c 0
 1221.82074883 148.40864682 1215.64638722 138.964057657 1209 130 c 0
 1183.83344536 96.0575829513 1152.91872324 66.8006198021 1122 38 c 0
 1096.43237217 14.1838959921 1063.35459362 -16.5161876466 1017.40990875 -16.5161876466 c 0
 960.902068825 -16.5161876466 927.977374427 31.3724394312 927.977374427 88.4491719738 c 0
 927.977374427 114.936943314 934.617679409 141.649298937 943 167 c 0
 959.331866308 216.392558552 981.278961611 263.728960359 1003 311 c 0
 1049.70507369 412.643270935 1096.03752965 514.772267821 1142 616 c 0
 1149.96143363 633.534259255 1154.61899228 653.002054694 1154.61899228 671.041224261 c 0
 1154.61899228 705.532820498 1137.06226781 735.316600809 1093.8950544 735.316600809 c 0
 1062.36515955 735.316600809 1036.50869008 716.648871999 1018 701 c 0
 929.063977587 625.805676445 862.529881959 513.959462101 808 408 c 0
 773.605445768 341.16639731 742.498671843 272.698957962 712 204 c 0
 680.107071243 132.160446353 648.834291187 46.8960287943 589 0 c 0
 572.343550143 -13.0547439706 541.867507387 -34.0528518274 516.75877345 -34.0528518274 c 0
 494.076010255 -34.0528518274 477.149010413 -10.8495338071 477.149010413 22.7511414302 c 0
 477.149010413 44.7027216917 484.535305749 65.0134358276 491 82 c 0
 500.187648141 106.141369828 511.021653628 129.618500338 522 153 c 0
 556.889617326 227.307327176 591.148481111 301.927350174 622 378 c 0
 641.187212242 425.311190198 661.487295496 472.177778671 684 518 c 0
 699.96361805 550.492250736 726.77804342 597.423625536 726.77804342 641.987594806 c 0
 726.77804342 688.460971399 693.186297522 727.545277467 645.245935922 727.545277467 c 0
 597.095987305 727.545277467 562.201422491 694.474144973 537 668 c 0
 455.324412084 582.199630756 393.538331338 479.894804969 344 364 c 0
 293.031565446 244.759472056 250.270806112 112.254806744 179 11 c 0
 167.596764688 -5.20063600759 151.884925429 -18.3485217348 132.67050995 -18.3485217348 c 0
 99.2399783405 -18.3485217348 68.3059237395 16.0675209753 68.3059237395 50.4750977233 c 0
 68.3059237395 68.3183727284 74.6303952006 83.1621434957 80 97 c 0
 146.395327462 268.105518618 233.223320505 429.714449996 302 598 c 0
 308.214864306 613.206780345 334.284172524 653.962220682 334.284172524 682.758014807 c 0
  Spiro
    80 97 c
    206 386 o
    302 598 o
    324 652 c
    325 704 c
    297 712 c
    254 675 c
    217 604 c
    146 544 v
    119 567 v
    179 628 o
    207 710 o
    275 787 o
    361 833 o
    443 811 o
    472 765 c
    497 738 c
    529 744 c
    569 776 c
    689 833 o
    793 830 o
    868 767 o
    908 711 v
    982 764 o
    1078 819 o
    1148 844 o
    1210 834 c
    1259 760 c
    1273 674 c
    1238 547 c
    1160 368 c
    1089 221 c
    1063 146 c
    1074 112 c
    1091 100 c
    1125 117 c
    1172 182 c
    1185 219 c
    1192 237 c
    1217 238 c
    1248 223 c
    1256 200 c
    1250 175 c
    1230 156 c
    1209 130 c
    1122 38 o
    1008 -16 o
    931 59 o
    943 167 o
    1003 311 o
    1095 515 o
    1142 616 o
    1139 718 o
    1101 735 o
    1018 701 o
    938 615 o
    808 408 o
    712 204 o
    637 54 o
    589 0 c
    546 -26 c
    510 -34 c
    480 0 c
    491 82 c
    522 153 c
    622 378 o
    684 518 o
    723 615 o
    708 698 o
    655 727 o
    537 668 o
    433 537 o
    344 364 o
    250 142 o
    211 62 o
    179 11 c
    146 -18 c
    101 -7 c
    69 39 c
    0 0 z
  EndSpiro
EndSplineSet
EndChar

StartChar: n
Encoding: 110 110 13
Width: 952
VWidth: 0
Flags: HW
LayerCount: 2
Fore
SplineSet
382.343776237 845.446184346 m 0
 442.24296255 845.446184346 474.003902096 786.054971676 474.003902096 727.173152324 c 0
 474.003902096 706.794855469 470.559744755 687.025232201 464 668 c 1
 522.606571801 725.631576823 585.724146861 785.197769546 658 828 c 0
 689.580961852 846.702451074 724.991945237 861.019891895 761.638268185 861.019891895 c 0
 845.853681943 861.019891895 907.013269924 785.784068742 907.013269924 702.17910777 c 0
 907.013269924 630.754224891 871.954657491 569.016597509 850 514 c 0
 832.699135578 470.645431849 817.307631633 426.498868809 798 384 c 0
 765.915060205 313.376441763 728.676129048 243.757539868 704 168 c 0
 701.720634314 161.002178888 700.595310874 153.268026278 700.595310874 145.735720557 c 0
 700.595310874 125.952150222 708.358333108 107.561016788 723.364026351 107.561016788 c 0
 728.923882126 107.561016788 735.478029298 110.085796078 743 116 c 0
 794.71025316 156.657560921 833.640881415 216.121103515 876 266 c 1
 895 246 l 1
 878.564669447 165.257249799 822.435638924 113.435832032 772 64 c 0
 735.306099809 28.0334984325 683.153901131 -15.5579297288 614.167843581 -15.5579297288 c 0
 551.996566489 -15.5579297288 504.852127507 13.1949513998 504.852127507 76.0129273216 c 0
 504.852127507 104.676712267 513.639245404 129.10588876 524 154 c 0
 567.914974653 259.515892106 627.444970579 359.02155768 668 468 c 0
 682.124549952 505.955130946 695.661196467 544.125290896 710 582 c 0
 718.388729293 604.15810273 730.782467562 639.985416901 730.782467562 670.112755543 c 0
 730.782467562 699.852520782 718.705556884 724.038021938 678.777766903 724.038021938 c 0
 643.37993308 724.038021938 617.281368766 702.807074081 596 686 c 0
 544.043700783 644.967236574 500.199812574 597.569893984 468.891326943 536.651092523 c 0
 452.775223321 505.293021472 439.566956616 472.542204969 426 440 c 0
 399.478185165 376.383791962 369.29500408 314.387749785 340 252 c 0
 310.726501074 189.658048406 287.755465537 124.646225915 264 60 c 0
 249.367382696 20.1799643745 224.24776617 -55.1877452787 170.595259678 -55.1877452787 c 0
 123.518967043 -55.1877452787 91.578993311 -11.9111856705 91.578993311 33.2179720261 c 0
 91.578993311 52.4861705646 96.8709470845 71.6127464081 103 90 c 0
 112.516005659 118.548164236 124.103082725 146.359171426 136 174 c 0
 168.407843401 249.295105715 199.816326356 325.024018041 228 402 c 0
 247.754834209 455.954916625 268.464372014 509.583774288 292 562 c 0
 305.090128401 591.153040882 318.737720318 620.093273155 330 650 c 0
 333.690548711 659.800167934 339.079130825 679.52401631 339.079130825 696.310752358 c 0
 339.079130825 712.035000954 334.351083832 725.182169937 319.070608666 725.182169937 c 0
 287.499976796 725.182169937 265.722141223 692.180467313 250 674 c 0
 208.412302726 625.909618404 168.684038584 574.298200365 136 518 c 0
 128.387384352 504.887282612 110.343117862 491.958667323 102 516 c 0
 94.1400699047 538.648990146 103.951305187 559.363583585 112 576 c 0
 158.24780123 671.592850445 222.229775761 758.339408105 306 817 c 0
 326.614197079 831.435212667 354.113932371 845.446184346 382.343776237 845.446184346 c 0
  Spiro
    136 174 o
    228 402 o
    292 562 o
    330 650 c
    340 690 c
    326 722 c
    288 712 c
    250 674 c
    198 609 o
    152 544 o
    136 518 c
    116 502 c
    102 516 c
    100 542 c
    112 576 c
    144 634 o
    197 711 o
    248 769 o
    306 817 o
    378 846 o
    458 796 o
    474 726 o
    464 668 v
    558 754 o
    658 828 o
    764 861 o
    866 814 o
    907 700 o
    850 514 o
    798 384 o
    738 252 o
    704 168 o
    700 138 c
    706 120 c
    718 108 c
    743 116 c
    773 144 c
    815 193 o
    849 234 o
    876 266 v
    895 246 v
    862 166 o
    772 64 o
    684 0 o
    612 -14 o
    532 10 o
    505 82 o
    524 154 o
    598 310 o
    668 468 o
    710 582 o
    731 660 c
    718 708 c
    676 724 c
    596 686 c
    528 624 o
    426 440 o
    340 252 o
    264 60 o
    238 0 c
    204 -42 c
    172 -54 c
    118 -32 c
    92 24 c
    103 90 c
    0 0 z
  EndSpiro
EndSplineSet
EndChar

StartChar: o
Encoding: 111 111 14
Width: 769
VWidth: 0
Flags: HW
LayerCount: 2
Fore
SplineSet
242.277563307 141.506783103 m 0
 242.277563307 95.7606823396 257.922028414 52.8946771548 306.628716946 52.8946771548 c 0
 331.379770726 52.8946771548 350.577922434 67.6546878359 364 81 c 0
 393.381478178 110.213435564 415.054155259 146.251326382 436 182 c 0
 489.137690617 272.691112349 531.845246379 387.691198098 558 498 c 0
 571.934872226 556.770924863 589.998036129 615.333295201 589.998036129 679.285924787 c 0
 589.998036129 730.645228282 569.1158652 784.546550764 523.528216478 784.546550764 c 0
 454.77030602 784.546550764 421.621387056 705.972860054 398 660 c 0
 325.188195322 518.290840464 276.572315937 361.2799427 246 183 c 0
 243.665939211 169.389116721 242.277563307 155.242478838 242.277563307 141.506783103 c 0
  Spiro
    484 279 o
    558 498 o
    589 660 o
    574 752 o
    519 783 o
    466 760 o
    398 660 o
    309 441 o
    265 278 o
    246 183 o
    256 81 o
    303 53 o
    364 81 o
    436 182 o
    0 0 z
  EndSpiro
87.1923828125 214.4140625 m 0
 87.1923828125 317.899414062 119.321562931 421.842890384 156 507 c 0
 220.042627661 655.689134536 295.463166514 858.270956375 506.984748652 858.270956375 c 0
 650.35607761 858.270956375 724.781955589 755.566798549 724.781955589 612.787282529 c 0
 724.781955589 542.93496389 708.6646799 473.542603841 690 406 c 0
 649.670201245 260.056987055 596.809172389 108.93282313 491 22 c 0
 441.39289236 -18.7572029635 382.437920219 -45.6896903998 311.8583088 -45.6896903998 c 0
 168.689282348 -45.6896903998 87.1923828125 65.3037109375 87.1923828125 214.4140625 c 0
EndSplineSet
EndChar

StartChar: p
Encoding: 112 112 15
Width: 926
VWidth: 0
Flags: HW
LayerCount: 2
Fore
SplineSet
518.260011347 1007.10369186 m 0
 518.260011347 942.497990094 495.857389157 882.084595953 480.328802176 827.95789343 c 1
 504.058126729 829.925483129 527.828345597 831.189522114 551.59043885 831.189522114 c 0
 715.742321881 831.189522114 849.6809456 756.218874553 849.6809456 591.298039969 c 0
 849.6809456 509.580546343 816.46662285 445.316533258 786 388 c 0
 709.964595651 244.955403178 614.533744548 103.884180565 466 33 c 0
 402.866629316 2.87110733069 321.944507104 -1.27708154905 244.493924426 -13.5940451009 c 1
 228.074220086 -69.5204862527 210.680886157 -125.133188949 191 -180 c 0
 169.242481248 -240.656093469 142.624374548 -299.741012954 126 -362 c 0
 120.081918236 -384.163466951 115.842618705 -407.057292191 115.842618705 -429.920515228 c 0
 115.842618705 -484.384599178 137.411417413 -502.447166328 179 -516 c 0
 218.110398028 -528.745246083 256.256801886 -543.607971868 303 -548 c 1
 301 -582 l 1
 -103 -601 l 2
 -104.520305609 -601.169526479 -106.086435057 -601.252868225 -107.685338925 -601.252868225 c 0
 -129.849507516 -601.252868225 -158.311538934 -585.238095474 -158.311538934 -560.781445514 c 0
 -158.311538934 -522.365711266 -110.46758721 -520.234201273 -89 -502 c 0
 -74.478930916 -489.66605237 -66.3766014586 -471.566259203 -59 -454 c 0
 -22.4924977771 -367.062912438 7.76088157493 -277.643342564 37 -188 c 0
 137.605825922 120.444406084 232.850906735 434.276998763 324.132590332 751.980357504 c 1
 255.345827348 738.218341073 188.725623485 720.624040869 122 706 c 1
 114 768 l 1
 185.736379739 785.748482319 262.983488523 800.213704835 341.172202205 811.490998094 c 1
 360.653453996 879.762600984 371.633142757 957.634186115 396 1024 c 0
 405.047712164 1048.64243852 429.091256417 1067.49846343 459.880847146 1067.49846343 c 0
 499.449073589 1067.49846343 518.260011347 1048.04537755 518.260011347 1007.10369186 c 0
306.74912715 206.127619614 m 0
 306.644960653 200.711294303 306.584919367 195.292241717 306.584919335 189.868687881 c 0
 306.584919335 141.125236095 311.595310054 75.7615895821 353.028927591 75.7615895821 c 0
 361.192075781 75.7615895821 370.769024285 78.2987383201 382 84 c 0
 408.475023857 97.4397084299 431.891986905 116.181109822 454 136 c 0
 556.909838618 228.254278171 626.023884074 353.601160067 677 494 c 0
 689.781280043 529.202307163 700.027346565 564.948229177 700.027346565 603.260708961 c 0
 700.027346565 700.072135937 635.217334801 775.002325281 531.700401054 775.002325281 c 0
 508.802765783 775.002325281 486.310697621 774.03481146 464.159793089 772.292614605 c 1
 447.629582663 715.747320304 431.075725519 659.212147701 417 602 c 0
 384.271411111 468.971485123 344.487395239 337.826186956 306.74912715 206.127619614 c 0
EndSplineSet
EndChar

StartChar: w
Encoding: 119 119 16
Width: 1340
VWidth: 0
Flags: HW
LayerCount: 2
Fore
SplineSet
838 142 m 1
 953.974386643 200.370331073 1043.92061025 289.572825953 1098 410 c 0
 1121.41815279 462.148923551 1134.89222604 510.216705611 1134.89222604 574.440218446 c 0
 1134.89222604 642.993631335 1116.36413558 739.796455994 1053.62323809 739.796455994 c 0
 1042.51546791 739.796455994 1030.02189822 736.76228294 1016 730 c 0
 938.680548568 692.711467503 882.484803026 613.158690033 836 544 c 1
 830.833416048 471.804763187 827.349452765 401.946206334 827.349452765 326.856673963 c 0
 827.349452765 261.403845417 830.569253308 203.150665676 838 142 c 1
693.011655679 592.568523766 m 0
 693.011655679 661.383231033 662.421973192 724.392648056 596.079545477 724.392648056 c 0
 515.835567688 724.392648056 467.200674031 658.199860393 438 604 c 0
 388.971496356 512.997372802 365.652095553 402.266765747 350 286 c 0
 345.180327079 250.198545773 342.029697067 214.649435423 342.029697067 178.102536174 c 0
 342.029697067 161.965427614 342.643950759 145.633787957 344 129 c 1
 406.743855016 149.770075518 456.027046571 184.728718702 502 224 c 0
 573.363885277 284.960869473 638.01835089 356.89617576 682 444 c 1
 685.770004576 493.526053175 693.011655679 542.912940775 693.011655679 592.568523766 c 0
91.0037365838 29.8688047685 m 0
 91.0037365838 66.3377097432 110.269167559 107.324291864 122 132 c 0
 136.081237533 161.619765633 151.647213 190.510861797 166 220 c 0
 204.85328842 299.827701186 231.358506548 385.1983029 250 472 c 0
 260.423957816 520.537807941 270.0044828 570.22157853 270.0044828 619.618282612 c 0
 270.0044828 674.08147364 259.873751704 727.995214425 230.444417275 757.753144507 c 0
 221.61137536 766.684812478 213.242542373 770.220360448 205.176771955 770.220360448 c 0
 174.522846454 770.220360448 148.246286175 719.153728321 117.501207475 719.153728321 c 0
 94.2723336414 719.153728321 80.2074547523 744.519295181 80.2074547523 767.611450428 c 0
 80.2074547523 779.903711771 83.0932645777 792.77181801 88 804 c 0
 110.175244493 854.744060851 165.683716807 894.117497205 234.134727324 894.117497205 c 0
 339.165264674 894.117497205 418.766317753 807.474656521 424 710 c 1
 460.886737914 754.590878774 502.945064639 801.124245148 555.689432885 829.245295976 c 0
 579.876042865 842.140566337 604.679196363 850.24945625 634.513662913 850.24945625 c 0
 687.404127919 850.24945625 727.388029716 824.116325898 756 796 c 0
 789.594542105 762.987415238 813.775204229 720.900770563 828 676 c 1
 867.734784856 727.964979877 914.423915791 775.496215785 970 810 c 0
 1006.45080457 832.630070347 1048.39675802 848.492934309 1091.07538339 848.492934309 c 0
 1161.49172363 848.492934309 1211.85945581 808.487900598 1244 766 c 0
 1279.49519316 719.077451648 1299.01424297 661.025320446 1299.01424297 601.252931085 c 0
 1299.01424297 495.829307336 1242.57076186 413.121443376 1194 348 c 0
 1101.74266259 224.305605608 996.625599573 114.918782591 864 31 c 0
 831.389195511 10.3655295743 798.739468234 -10.2678292111 765 -29 c 0
 744.058544552 -40.6267072525 709.608609024 -55.9294288492 679.227963912 -55.9294288492 c 0
 642.671143873 -55.9294288492 622 -30 622 8 c 0
 622 38.816900322 631.192295557 65.5933326197 637.69867121 93 c 0
 653.276038057 158.616210092 671.149896776 226.290250056 672 302 c 1
 580.198071344 212.089058207 485.782526033 118.090336914 372 52 c 0
 334.08297223 29.9759755082 295.39991183 9.24592417794 256 -10 c 0
 230.247571096 -22.5794518583 193.533483808 -38.9298864584 160.216534539 -38.9298864584 c 0
 121.207540144 -38.9298864584 91.0037365838 -11.0811356253 91.0037365838 29.8688047685 c 0
EndSplineSet
EndChar

StartChar: q
Encoding: 113 113 17
Width: 1096
VWidth: 0
Flags: HW
LayerCount: 2
Fore
SplineSet
298.468663788 171.811998869 m 0
 298.468663788 117.494718851 335.287918715 79.4552819008 393.546148088 79.4552819008 c 0
 442.054250749 79.4552819008 480.642155226 102.916071616 512 124 c 0
 576.474852594 167.350657051 634.04599599 220.117300942 696 267 c 1
 814 614 l 1
 791.381298557 650.183037445 765.204804873 691.2630419 728.026460409 713.09578295 c 0
 713.306512486 721.739976658 698.618986062 725.273040535 684.577001346 725.273040535 c 0
 653.22527381 725.273040535 625.091577604 707.660684756 607 690 c 0
 575.610109339 659.357732331 550.508496891 622.951014237 524 588 c 0
 460.571591575 504.370693708 407.496127167 416.21129572 355.579558995 321.510125138 c 0
 330.994922374 276.665214383 298.468663788 232.156470947 298.468663788 171.811998869 c 0
  Spiro
    302 202 o
    310 124 o
    382 80 o
    512 124 o
    696 267 v
    814 614 v
    768 678 o
    677 726 o
    607 690 o
    524 588 o
    420 436 o
    0 0 z
  EndSpiro
78.4107573884 159.374114647 m 0
 78.4107573884 268.972513762 142.561760638 353.377944764 192 422 c 0
 248.536610823 500.474850254 308.033865188 577.186520184 376 646 c 0
 439.746704492 710.541445164 506.578306431 774.165823059 586 818 c 0
 615.91882247 834.512704515 646.532280558 846.295845477 683.664338857 846.295845477 c 0
 764.086413371 846.295845477 823.503905965 795.21729816 860 746 c 1
 872.333212028 777.143822658 890.787278243 805.850147882 914 830 c 0
 931.862026764 848.583142011 964.392863575 856.488285104 1000.88819082 856.572321926 c 0
 1023.54749871 856.572321926 1031.11535818 841.671869724 1031.11535818 823.49278074 c 0
 1031.11535818 814.004201113 1029.05363079 803.62241578 1026 794 c 0
 987.802084353 673.633049491 946.898134575 554.142493154 908 434 c 0
 849.46222074 253.197634518 798.353696375 70.1039336618 744 -112 c 0
 712.821330256 -216.459471671 676.354947912 -319.227394549 640 -422 c 0
 624.657845023 -465.371076864 609.967142256 -509.087996005 600 -554 c 0
 598.11718709 -562.483966492 597.13249676 -570.481639844 597.13249676 -577.852328289 c 0
 597.13249676 -603.328844233 608.896730261 -621.314683534 636 -626 c 0
 678.550264953 -633.35562384 717.970681433 -629.136322579 717.970681433 -684.004023465 c 0
 717.970681433 -728.93053414 670.384094375 -744.97653254 622.838778356 -744.97653254 c 0
 582.413011272 -744.97653254 540.010465644 -738.342673782 498.748471399 -738.342673782 c 0
 440.202363379 -738.342673782 381.66433577 -744.128669088 323.394728267 -744.128669088 c 0
 251.100757107 -744.128669088 183.942219037 -729.772960455 152.806353957 -680.393398792 c 0
 146.641020575 -670.615560305 143.887652147 -660.292261356 143.887652147 -650.284065372 c 0
 143.887652147 -619.622016356 169.73137486 -591.917593192 202.479885291 -591.917593192 c 0
 245.881661045 -591.917593192 268.612643936 -633.789318277 309.737881828 -633.789318277 c 0
 356.484884509 -633.789318277 379.740647073 -590.144018196 396 -558 c 0
 449.561635957 -452.111025909 491.363302716 -340.740397891 534 -230 c 0
 584.071442977 -99.9493189773 632.06315095 28.3712396174 666 172 c 1
 623.999960006 137.823459802 581.541222693 104.190078997 538 72 c 0
 489.527814687 36.1644543283 439.560470354 1.3831823484 384 -22 c 0
 349.678058361 -36.4447340848 312.872245968 -46.0311345338 275.664113685 -46.0311345338 c 0
 164.013522599 -46.0311345338 78.4107573884 44.9289317359 78.4107573884 159.374114647 c 0
  Spiro
    79 176 o
    192 422 o
    376 646 o
    586 818 o
    674 846 o
    766 826 o
    860 746 v
    914 830 c
    934 846 c
    978 854 c
    1022 850 c
    1030 838 c
    1026 794 c
    908 434 o
    744 -112 o
    640 -422 o
    600 -554 c
    604 -608 c
    636 -626 c
    698 -638 c
    714 -662 c
    716 -698 c
    694 -728 c
    590 -742 c
    384 -742 o
    170 -700 c
    144 -656 c
    152 -622 c
    194 -592 c
    248 -608 c
    294 -632 c
    340 -626 c
    396 -558 c
    534 -230 o
    624 20 o
    666 172 v
    538 72 o
    384 -22 o
    272 -46 o
    126 22 o
    0 0 z
  EndSpiro
EndSplineSet
EndChar

StartChar: r
Encoding: 114 114 18
Width: 812
VWidth: 0
Flags: HW
LayerCount: 2
Fore
SplineSet
61.6337890625 50.623046875 m 0
 61.6337890625 116.609375 83.185546875 169.301757812 107.692382812 225.294921875 c 0
 146.69921875 314.415039062 194.70703125 399.830078125 229.9375 490.159179688 c 0
 243.51953125 524.983398438 254.4921875 561.71875 254.4921875 598.954101562 c 0
 254.4921875 642.357421875 235.040039062 689.4765625 201.306640625 689.4765625 c 0
 169.569335938 689.4765625 136.4296875 648.602539062 119.334960938 628.897460938 c 1
 91.19921875 644.421875 l 1
 116.810546875 686.145507812 144.767578125 726.540039062 176.577148438 763.756835938 c 0
 205.8203125 797.970703125 248.275390625 849.190429688 307.440429688 849.190429688 c 0
 390.4609375 849.190429688 389.58984375 756.340820312 396.8125 681.2890625 c 1
 426.888671875 680.319335938 l 1
 465.495117188 733.780273438 511.688476562 787.827148438 566.596679688 824.877929688 c 0
 585.923828125 837.919921875 610.884765625 848.428710938 637.067382812 848.428710938 c 0
 690.595703125 848.428710938 725.842773438 806.439453125 745.11328125 770.546875 c 0
 749.793945312 761.830078125 751.740234375 753.2265625 751.740234375 744.897460938 c 0
 751.740234375 715.865234375 728.08984375 690.153320312 714.067382812 674.498046875 c 0
 694.173828125 652.287109375 668.764648438 632.740234375 637.852539062 632.740234375 c 0
 602.545898438 632.740234375 573.46875 659.186523438 548.163085938 672.557617188 c 0
 540.684570312 676.5078125 533.907226562 678.1796875 527.74609375 678.1796875 c 0
 510.036132812 678.1796875 497.434570312 664.370117188 488.010742188 651.212890625 c 0
 407.426757812 538.708984375 343.650390625 411.36328125 296.880859375 268.953125 c 0
 281.307617188 221.533203125 270.1015625 172.8359375 258.073242188 124.39453125 c 0
 241.564453125 57.9111328125 209.436523438 3.630859375 159.112304688 -31.80859375 c 0
 147.522460938 -39.9697265625 132.708007812 -45.7080078125 118.2578125 -45.7080078125 c 0
 74.0380859375 -45.7080078125 61.6337890625 6.4560546875 61.6337890625 50.623046875 c 0
  Spiro
    62.0928 67.1524 o
    107.692 225.295 o
    154.262 327.166 o
    229.937 490.16 o
    254.192 609.494 o
    242.55 658.004 o
    218.295 685.17 c
    196.951 690.021 c
    164.934 673.527 c
    119.335 628.898 v
    91.1988 644.421 v
    176.576 763.756 o
    246.431 828.759 o
    310.464 849.134 o
    368.676 818.087 o
    389.05 758.905 o
    396.812 681.289 v
    426.888 680.319 v
    495.772 762.786 o
    566.597 824.879 o
    638.392 849.134 o
    710.186 816.147 o
    745.114 770.547 c
    752.875 748.233 c
    744.143 716.216 c
    714.067 674.498 c
    661.676 635.69 c
    632.57 631.809 c
    597.643 643.451 c
    548.163 672.557 c
    526.819 679.349 c
    488.011 651.213 c
    373.527 459.113 o
    296.881 268.954 o
    258.073 124.394 o
    216.355 25.4338 o
    159.113 -31.808 o
    107.692 -45.3908 o
    69.8544 -5.6126 o
    0 0 z
  EndSpiro
EndSplineSet
EndChar

StartChar: s
Encoding: 115 115 19
Width: 884
VWidth: 0
Flags: HW
LayerCount: 2
Fore
SplineSet
92.4521484375 134.466796875 m 0
 92.4521484375 175.810546875 129.009765625 211.3046875 150.388671875 231.51953125 c 0
 160.387695312 240.975585938 170.383789062 244.901367188 180.109375 244.901367188 c 0
 219.436523438 244.901367188 254.338867188 180.701171875 267.138671875 158.303710938 c 0
 280.2421875 135.374023438 309.100585938 81.798828125 344.93359375 81.798828125 c 0
 393.255859375 81.798828125 409.641601562 153.576171875 409.641601562 197.858398438 c 0
 409.641601562 219.732421875 406.930664062 241.5390625 403.67578125 263.180664062 c 0
 390.359375 351.700195312 369.9375 441.9921875 369.9375 539.991210938 c 0
 369.9375 665.020507812 424.583984375 738.702148438 502.615234375 787.5625 c 0
 536.904296875 809.033203125 572.244140625 823.635742188 616.938476562 823.635742188 c 0
 678.592773438 823.635742188 749.373046875 802.196289062 783.604492188 767.774414062 c 0
 793.229492188 758.096679688 797.1875 746.961914062 797.1875 735.014648438 c 0
 797.1875 723.416992188 793.458007812 711.053710938 787.5625 698.516601562 c 0
 773.5625 668.7421875 753.907226562 602.943359375 713.930664062 602.943359375 c 0
 705.196289062 602.943359375 695.4921875 606.083984375 684.665039062 613.428710938 c 0
 657.026367188 632.17578125 632.625 660.125976562 611.44921875 685.654296875 c 0
 601.65625 697.458984375 588.674804688 706.552734375 576.5859375 706.552734375 c 0
 550.446289062 706.552734375 542.970703125 662.385742188 542.970703125 633.258789062 c 0
 542.970703125 557.834960938 551.357421875 486.151367188 563.958007812 413.569335938 c 0
 573.46484375 358.806640625 584.869140625 306.340820312 584.869140625 249.005859375 c 0
 584.869140625 104.8203125 502.375 -29.5341796875 350.267578125 -29.5341796875 c 0
 242.654296875 -29.5341796875 140.047851562 25.5556640625 100.918945312 100.918945312 c 0
 94.9638671875 112.390625 92.4521484375 123.62890625 92.4521484375 134.466796875 c 0
  Spiro
    370.036 550.106 o
    419.506 712.368 o
    502.615 787.562 o
    603.534 823.181 o
    708.41 807.35 o
    783.605 767.774 c
    797.456 746.008 c
    787.562 698.516 c
    747.986 625.301 c
    722.262 603.534 c
    684.665 613.428 c
    645.089 649.046 c
    611.449 685.654 c
    577.81 708.41 c
    550.106 682.686 c
    543.181 619.364 c
    563.958 413.569 o
    584.735 259.223 o
    532.297 67.2792 o
    379.93 -27.7032 o
    219.647 0 o
    126.643 63.3216 o
    100.919 100.919 c
    91.0248 132.58 c
    102.898 172.156 c
    150.389 231.52 c
    172.156 245.371 c
    205.795 235.477 c
    267.138 158.304 o
    318.587 93.0036 c
    350.248 83.1096 c
    387.845 110.813 c
    409.612 193.922 o
    403.675 263.18 o
    379.93 417.527 o
    0 0 z
  EndSpiro
EndSplineSet
EndChar

StartChar: t
Encoding: 116 116 20
Width: 760
VWidth: 0
Flags: HW
LayerCount: 2
Fore
SplineSet
625.036649897 730.604054139 m 0
 592.147251079 730.604054139 562.348364584 741.643325544 529.408432497 741.643325544 c 0
 505.028378821 741.643325544 495.475732387 727.536073086 487 708 c 0
 456.903099992 638.62838568 435.713812668 565.804591443 412 494 c 0
 394.754020729 441.7797808 374.596752494 390.576233312 353 340 c 0
 334.924480626 297.669946657 314.918978108 254.421712389 314.918978108 206.962012006 c 0
 314.918978108 177.739624471 328.009276325 158.536119046 352.00163965 158.536119046 c 0
 358.539623781 158.536119046 365.887170512 159.962127755 374 163 c 0
 421.621905544 180.83215897 461.474571642 214.620276083 498 250 c 0
 531.883094924 282.820273376 563.769562551 317.646156605 595 353 c 1
 639 329 l 1
 579.370890933 212.226951222 489.437330047 112.523738516 391 32 c 0
 347.452923806 -3.62239421723 294.858788006 -45.0099955908 221.748991271 -45.0099955908 c 0
 150.379459666 -45.0099955908 107.537395795 3.31262268734 107.537395795 72.8287668652 c 0
 107.537395795 115.281802388 122.2989528 156.874534695 137 197 c 0
 186.571453795 332.301766078 241.500909266 467.235720489 285 608 c 0
 292.250786293 631.46374812 310.261869101 656.286960473 310.261869101 682.581130069 c 0
 310.261869101 711.592277884 271.519397678 726.926134534 243.859926748 729.766720919 c 0
 230.52726745 731.135965131 225.943751513 742.437467441 225.943751513 756.248693836 c 0
 225.943751513 788.598251137 236.389147829 807.367359192 253.999998487 818.651824313 c 0
 273.81758696 831.350295855 302.70888086 834.57086942 336 837 c 0
 363.297894376 838.991827001 372.458631882 851.82021774 381 873 c 0
 414.699035545 956.562518952 429.475006058 1115.27601443 545.330362742 1115.27601443 c 0
 578.096513853 1115.27601443 602.302474698 1096.67906464 602.302474698 1062.71885449 c 0
 602.302474698 1040.46902038 592.481091733 1024.62472734 585 1006 c 0
 576.195332935 984.080134661 571.265383036 960.729135643 562 939 c 0
 556.114291573 925.196862422 542.399296534 901.959922097 542.399296534 884.430116025 c 0
 542.399296534 871.051758698 550.387461307 860.99746592 575.940340346 860.99746592 c 0
 593.775851834 860.99746592 622.413737032 871.926924222 643.445824534 871.926924222 c 0
 658.858097841 871.926924222 670.186110844 866.05788136 670.186110844 845.718148972 c 0
 670.186110844 800.787716082 674.165823285 730.604054139 625.036649897 730.604054139 c 0
  Spiro
    108 60 o
    137 197 o
    212 396 o
    285 608 o
    303 658 c
    310 686 c
    291 712 c
    258 729 c
    231 735 c
    227 759 c
    241 808 c
    256 822 c
    278 830 c
    336 837 c
    359 842 c
    381 873 c
    418 974 o
    483 1093 c
    505 1107 c
    530 1114 c
    581 1106 c
    597 1086 c
    602 1056 c
    585 1006 c
    562 939 c
    543 890 c
    544 875 c
    575 861 c
    640 869 c
    663 867 c
    670 841 c
    661 763 c
    651 737 c
    618 731 c
    539 741 c
    513 740 c
    487 708 c
    412 494 o
    353 340 o
    315 211 c
    338 160 c
    374 163 c
    498 250 o
    595 353 v
    639 329 v
    510 145 o
    391 32 o
    293 -30 o
    220 -45 o
    135 -9 o
    0 0 z
  EndSpiro
EndSplineSet
EndChar

StartChar: v
Encoding: 118 118 21
Width: 1064
VWidth: 0
Flags: HW
LayerCount: 2
Fore
SplineSet
103.840554646 570.176295025 m 0
 103.840554646 737.172777074 215.482451435 837.886786032 383.53064053 837.886786032 c 0
 429.00378852 837.886786032 473.769466965 827.916221673 519.671978441 827.916221673 c 0
 553.696961526 827.916221673 583.244184075 836.111141547 602 854 c 0
 610.295535973 861.912088144 618.621277336 865.316813107 626.316227157 865.316813107 c 0
 646.235332483 865.316813107 661.927616054 842.502357677 661.927616054 815.999490754 c 0
 661.927616054 775.295240857 635.501689675 741.252037938 614 714 c 0
 533.051454399 611.40281489 399.089928879 516.902038804 399.089928879 344.77880172 c 0
 399.089928879 247.750397494 456.579827732 159.781336022 554.736187077 159.781336022 c 0
 619.827140909 159.781336022 664.682903187 195.415370394 700 230 c 0
 740.286273678 269.450747062 774.516810864 314.632375686 808 360 c 0
 838.629856731 401.501537602 875.482865732 445.251727375 875.482865732 507.10820516 c 0
 875.482865732 549.61193832 852.667892104 580.133095004 842 614 c 0
 835.033380421 636.116631957 830.466769152 664.487361763 830.466769152 691.962585081 c 0
 830.466769152 765.671780737 871.93178835 818.022896835 943.868375988 818.022896835 c 0
 989.121252583 818.022896835 1006.0447271 771.556624874 1006.0447271 725.687397951 c 0
 1006.0447271 656.372720295 989.959807048 587.796811862 968 522 c 0
 901.843923673 323.780639602 777.851236902 147.08276764 624 30 c 0
 577.807937054 -5.15275328032 529.159904523 -32.9239971389 455.187832524 -32.9239971389 c 0
 304.974091198 -32.9239971389 205.997059615 54.9238336822 205.997059615 204.46643575 c 0
 205.997059615 311.156207863 244.47272248 401.705265601 297.125488698 464.612174201 c 0
 340.245281022 516.129559316 399.704839299 558.966329492 430 622 c 0
 433.645749208 629.585533433 435.330771322 636.66109646 435.330771322 643.053032588 c 0
 435.330771322 664.118131718 417 678 390 678 c 0
 304 678 219.411255596 677.119524645 219.411255596 591.332220171 c 0
 219.411255596 583.58522967 220.486202925 574.670809043 220.486202925 566.74159926 c 0
 220.486202925 528.700682237 203.161758618 497.702561748 164.355063627 497.702561748 c 0
 119.856591055 497.702561748 103.840554646 526.483974858 103.840554646 570.176295025 c 0
EndSplineSet
EndChar

StartChar: x
Encoding: 120 120 41
Width: 1094
VWidth: 0
Flags: HW
LayerCount: 2
Fore
SplineSet
645 614 m 0
 706.463798605 685.96027426 769.7811945 763.48021949 853 813 c 0
 878.426237038 828.13001382 906.914236401 840.030089053 936.435320216 840.030089053 c 0
 1014.6570513 840.030089053 1001.11707983 741.095196566 1005 667 c 0
 1006.56029217 637.225976947 1005.63835009 607.09077573 1008 577 c 0
 1010.54208085 544.610277651 997.516494657 523.251963233 961.188044054 531.107305058 c 0
 897.671959115 544.841459704 860.59846846 607.60555051 835 660 c 0
 829.437201343 671.38582856 820.060444512 685.930793805 802.650635677 676.608352434 c 0
 797.971594709 674.102863401 793.998574348 670.490315581 790 667 c 0
 775.915822698 654.706062411 760.903882058 643.497480364 747 631 c 0
 719.780863341 606.534126046 696.787002129 577.814365327 673 550 c 0
 645.938234357 518.356422895 617.954453152 487.579822997 591.736400511 455.123323738 c 1
 614.556875044 366.881683727 640.634167402 282.597372208 677 206 c 0
 684.689568382 189.803458093 696.849718642 163.631264086 717.582898022 163.631264086 c 0
 722.498622556 163.631264086 727.89626999 165.102503655 733.830517732 168.52676119 c 0
 781.645671534 196.117688944 797.755338388 260.214685422 819 313 c 0
 826.973739233 332.811863398 844.570341314 339.077113175 868.652761418 339.077113175 c 0
 907.057620081 339.077113175 926.583599067 328.316173732 926.583599067 292.859656132 c 0
 926.583599067 262.152952524 912.285384342 223.58689295 904 204 c 0
 881.210431201 150.124787216 847.241664089 101.809610687 815 53 c 0
 783.632472035 5.51371567192 742.637601532 -48.0981026195 666.857502073 -48.0981026195 c 0
 552.429986133 -48.0981026195 539.338002949 61.6942750542 523.807978099 161.966127135 c 0
 515.549787296 215.286330714 500.336115076 264.360293896 485.478061252 312.798933096 c 1
 440.907991629 252.350325085 390.056292225 195.995928546 349 133 c 0
 312.844154866 77.5232164636 283.88209673 5.58644771923 225 -27 c 0
 203.721214528 -38.7760757311 178.197265861 -44.0726442219 148 -38 c 0
 134.539497188 -35.2931044486 121.401932848 -31.123040141 107.913573806 -28.5585538738 c 0
 78.7504240254 -23.0138840676 43.1292100074 -30.1385102532 36 0 c 0
 34.0724479583 8.14866540796 34.4003886126 16.6479540837 35 25 c 0
 37.1645591654 55.1503572417 42.7133861282 84.9512474895 46 115 c 0
 51.7705560944 167.758863284 58.6397826599 209.032377668 113 215 c 0
 177.304110966 222.059255232 217.171486594 203.084514961 247 166 c 0
 259.940302687 149.911875122 274.392969893 149.819268346 290 166 c 0
 355.147468292 233.542235461 408.031431662 312.484587287 463.360253635 389.354506974 c 1
 442.169252141 472.340000169 424.547283548 550.95283304 400 630 c 0
 391.08933849 658.69411382 372.453994171 706.762791304 334.794362127 706.762791304 c 0
 287.83222415 706.762791304 267.627688979 656.398439983 255 623 c 0
 240.673072681 585.107316468 228.643726725 546.346090612 219 507 c 1
 156 513 l 1
 169.129942055 608.957821091 199.984268581 700.008781258 253 762 c 0
 283.856043467 798.079927388 323.549979018 837.025197344 371.220981119 854.752374264 c 0
 385.144726865 859.930127895 397.903396195 862.297843699 409.613264423 862.297843699 c 0
 497.199293249 862.297843699 526.109553086 729.834647918 545 650 c 0
 554.560330194 609.596212916 563.774742816 569.439019059 573.238807433 529.844307282 c 1
 596.977302715 558.047532415 621.057698685 585.968953951 645 614 c 0
EndSplineSet
EndChar

StartChar: y
Encoding: 121 121 42
Width: 848
VWidth: 0
Flags: HW
LayerCount: 2
Fore
SplineSet
-230 -668 m 0
 -230 -655 -226 -642 -218 -632 c 0
 -207 -618 -187 -614 -174 -602 c 0
 -161 -589 -154 -570 -126 -570 c 0
 -96 -570 -72 -611 -30 -611 c 0
 37 -611 72 -550 100 -508 c 0
 147 -437 191 -365 229 -290 c 0
 288 -173 336 -48 382 80 c 1
 360 194 324 303 300 417 c 0
 290 466 278 546 217 546 c 0
 181 546 167 510 161 478 c 0
 156 453 144 423 118 423 c 0
 92 423 78 443 78 466 c 0
 78 476 81 487 84 498 c 0
 93 528 105 557 116 586 c 0
 146 670 171 761 220 830 c 0
 233 849 256 871 284 871 c 0
 340 871 360 808 372 764 c 0
 409 630 442 493 464 346 c 0
 470 306 476 265 482 225 c 1
 524 300 559 380 584 462 c 0
 604 525 616 591 628 656 c 0
 640 721 652 792 688 836 c 0
 699 850 717 860 735 860 c 0
 793 860 799 768 799 713 c 0
 799 639 778 588 752 538 c 0
 724 482 694 427 664 372 c 0
 619 291 567 215 522 134 c 0
 479 57 447 -26 414 -108 c 0
 375 -206 331 -303 278 -394 c 0
 238 -464 198 -534 154 -602 c 0
 121 -652 82 -696 24 -720 c 0
 1 -730 -23 -736 -47 -744 c 0
 -73 -753 -110 -774 -144 -774 c 0
 -154 -774 -163 -772 -172 -768 c 0
 -197 -757 -230 -709 -230 -668 c 0
EndSplineSet
EndChar

StartChar: z
Encoding: 122 122 45
Width: 896
VWidth: 0
Flags: HW
LayerCount: 2
Fore
SplineSet
675.103283716 739.926481793 m 1
 696.865207064 770.807920968 725.349824475 804.847101915 725.349824475 854.697019056 c 0
 725.349824475 866.338159787 723.777584325 878.048000991 723.777584325 889.622773508 c 0
 723.777584325 916.393344317 729.762687014 940.088532972 759.751495466 940.088532972 c 0
 778.896856184 940.088532972 792.509217158 929.904056348 803 920 c 0
 822.993103683 901.125066791 837.180590049 874.728983347 837.180590049 843.032410753 c 0
 837.180590049 800.162406476 815.304372071 768.865491144 795 742 c 0
 767.373577307 705.446423677 735.047104242 672.747004176 703 640 c 0
 643.296447397 578.992538246 585.815113706 515.86442421 527 454 c 0
 457.921565171 381.340145641 382.752812324 314.356288227 312.771891943 242.426542728 c 1
 323.71648043 243.714000158 334.73648962 244.361435995 345.756475336 244.361436028 c 0
 482.527124981 244.361436028 577.989341699 151.650649839 627 56 c 0
 660.011771755 -8.4267498161 674.827069727 -76.5356027555 674.827069727 -168.158426956 c 0
 674.827069727 -195.160899079 673.970168507 -222.045640357 673.970168507 -249.122701904 c 0
 673.970168507 -358.344176728 709.444071763 -442.607507284 816.221909206 -442.607507284 c 0
 853.61935184 -442.607507284 903.474884163 -435.356349623 903.474884163 -399.263573191 c 0
 903.474884163 -373.097002707 878.57685077 -354.760082104 878.57685077 -328.914868101 c 0
 878.57685077 -301.041183621 910.63798132 -293.438665054 930 -283 c 0
 945.856153431 -274.451455685 970.255510996 -250.038564166 993.191076446 -250.038564166 c 0
 1026.84616855 -250.038564166 1038.24503589 -299.673365118 1038.24503589 -333.423260991 c 0
 1038.24503589 -354.73705876 1034.51330386 -376.398280537 1028 -394 c 0
 993.972192519 -485.957620011 878.088913125 -546.101079906 763.954110247 -546.101079906 c 0
 652.364932483 -546.101079906 553.655359152 -494.614626962 516 -415 c 0
 497.647987194 -376.198387522 493.975261449 -332.284935653 493.975261449 -289.262718531 c 0
 493.975261449 -258.182937494 495.087966711 -227.289300466 495.087966711 -196.293551115 c 0
 495.087966711 -36.5330581226 458.627321028 123.461023341 296.058928693 123.461023341 c 0
 262.328861786 123.461023341 231.111296102 119.442776005 200.409441715 114.566114777 c 1
 179.425453133 89.265509912 158.407564081 63.2793007879 143 34 c 0
 135.835017295 20.3842407108 125.355985481 -0.950905318168 107.426821492 -0.950905318168 c 0
 82.4258909477 -0.950905318168 56.9844120451 33.0744191954 56.9844120451 58.84396955 c 0
 56.9844120451 71.2127617609 62.9142904481 81.7477740286 69 92 c 0
 109.302101424 159.894507189 163.394560844 210.761458766 221 262 c 0
 270.363419199 305.907478655 319.729716331 349.846623972 367 396 c 0
 435.743016675 463.118748856 503.005647551 532.224599515 567.051420572 603.967466567 c 1
 541.08905399 620.365138926 515.982337458 638.121931825 491 656 c 0
 443.847575212 689.743610517 394.947317588 723.816490923 318.330123581 723.816490923 c 0
 272.709805094 723.816490923 225.633215786 707.33717087 225.633215786 663.269356867 c 0
 225.633215786 635.592830886 242.328020339 618.776269962 258 605 c 0
 264.493111152 599.292306776 267.138685361 592.535366595 267.138685361 585.323546523 c 0
 267.138685361 559.793598963 233.985136186 528.563231889 221 518 c 0
 205.868649429 505.690851864 189.854405604 505.947196228 174 518 c 0
 139.882692878 543.936589377 120.260644668 585.048374136 120.260644668 633.287852516 c 0
 120.260644668 708.099776633 167.614470901 757.402085805 214 790 c 0
 253.897155016 818.038141659 299.573034511 839.658301826 364.140681737 839.658301826 c 0
 431.038656158 839.658301826 491.381058686 818.675928547 536 791 c 0
 576.442970892 765.914313525 609.182375153 740.005771115 675.103283716 739.926481793 c 1
EndSplineSet
EndChar

StartChar: dieresis
Encoding: 168 168 46
Width: 713
VWidth: 0
Flags: HW
LayerCount: 2
Fore
SplineSet
624.758789062 1099.47070312 m 0
 624.758789062 1060.66015625 592.142578125 1029 550 1029 c 0
 505.396484375 1029 459.783203125 1061.61816406 446.73046875 1095.79394531 c 0
 426.008789062 1150.04589844 487.448242188 1178.14160156 534.046875 1178.14160156 c 0
 582.827148438 1178.14160156 624.758789062 1147.05566406 624.758789062 1099.47070312 c 0
  Spiro
    542.812 1178.85 o
    599.812 1155.85 o
    625.812 1103.85 o
    595.812 1042.85 o
    534.812 1030.85 o
    464.812 1068.85 o
    444.812 1127.85 o
    489.812 1169.85 o
    0 0 z
  EndSpiro
284.758789062 1099.47070312 m 0
 284.758789062 1060.66015625 252.142578125 1029 210 1029 c 0
 165.396484375 1029 119.783203125 1061.61816406 106.73046875 1095.79394531 c 0
 86.0087890625 1150.04589844 147.448242188 1178.14160156 194.046875 1178.14160156 c 0
 242.827148438 1178.14160156 284.758789062 1147.05566406 284.758789062 1099.47070312 c 0
  Spiro
    202.812 1178.85 o
    259.812 1155.85 o
    285.812 1103.85 o
    255.812 1042.85 o
    194.812 1030.85 o
    124.812 1068.85 o
    104.812 1127.85 o
    149.812 1169.85 o
    0 0 z
  EndSpiro
EndSplineSet
EndChar

StartChar: dotlessi
Encoding: 305 305 47
Width: 611
VWidth: 0
Flags: HW
LayerCount: 2
Fore
SplineSet
112 601 m 1
 193.354043949 688.019576688 268.25338684 780.819139173 383 834 c 0
 409.396943537 846.234018433 448.801887766 859.33785793 482.948002389 859.33785793 c 0
 520.826749816 859.33785793 552.234104908 843.212580474 552.234104908 791.886648298 c 0
 552.234104908 753.890243162 537.484945312 722.846547521 522 691 c 0
 460.127082526 563.751322857 385.913669032 442.53713132 321 317 c 0
 300.40338859 277.168027014 272.275892031 232.12416717 272.275892031 180.793256135 c 0
 272.275892031 153.927614678 289.703207494 134.176885626 316.65223806 134.176885626 c 0
 368.215288471 134.176885626 409.803260791 181.857391389 437 211 c 0
 464.462801945 240.427707576 487.85556461 273.59257059 507 309 c 1
 542 295 l 1
 502.844755389 167.725071867 403.68409365 75.791685946 300 9 c 0
 269.844901398 -10.4254470922 226.119213954 -39.9978248394 180.814695015 -39.9978248394 c 0
 124.718759396 -39.9978248394 93.4023389623 1.92497188321 93.4023389623 49.0044365455 c 0
 93.4023389623 109.681834179 131.452706643 185.185547476 150 228 c 0
 195.77062527 333.656616567 246.50273555 433.271648765 297 534 c 0
 310.111323181 560.153534868 322.715729166 586.611170981 333 614 c 0
 336.414739445 623.094054047 338.493606512 632.878678429 338.493606512 641.867269122 c 0
 338.493606512 659.674549497 330.334573256 674.35759675 308.23948921 674.35759675 c 0
 276.00320919 674.35759675 253.465456382 652.013233991 236 635 c 0
 211.180166594 610.822811375 187.800408793 585.203075969 163 561 c 1
 112 601 l 1
  Spiro
    204 348 o
    297 534 o
    333 614 c
    330 667 c
    302 674 c
    236 635 c
    190 588 c
    163 561 v
    112 601 v
    208 703 o
    298 784 o
    383 834 o
    468 861 o
    533 842 o
    552 784 o
    522 691 o
    432 523 o
    321 317 o
    276 206 c
    275 163 c
    298 138 c
    363 150 c
    437 211 o
    507 309 v
    542 295 v
    439 122 o
    300 9 o
    208 -35 o
    138 -30 o
    103 5 o
    97 87 o
    150 228 o
    0 0 z
  EndSpiro
EndSplineSet
EndChar

StartChar: k
Encoding: 107 107 52
Width: 900
VWidth: 0
Flags: HW
LayerCount: 2
Fore
SplineSet
1095.8335047 -430.508272092 m 0
 1142.56640324 -430.508272092 1186.58752449 -460.459015714 1186.58752449 -504.000188896 c 0
 1186.58752449 -527.706948542 1169.44349151 -545.4319698 1157 -559 c 0
 1133.59385138 -584.521400571 1104.36006617 -617.23210736 1062.39423656 -617.23210736 c 0
 1034.48787172 -617.23210736 1010.59815415 -603.054622942 992 -591 c 0
 916.466095486 -542.041768396 856.682885318 -472.498679891 802 -401 c 0
 729.656891635 -306.41031774 661.694099905 -208.55809524 592 -112 c 0
 551.951086395 -56.5140001896 513.387187872 0.0467066108692 477 58 c 0
 427.96655195 136.094790141 379.044454226 233.073882864 278.456435876 259.326069435 c 1
 254.865666906 199.599450963 234.636711023 138.550346553 213 78 c 0
 200.032983752 41.7117985839 180.000665876 -4.93112748396 142.886988163 -19.6903241943 c 0
 136.073262679 -22.3999752163 129.84773415 -23.6451227841 124.186443217 -23.6451227841 c 0
 91.8679496469 -23.6451227841 77.9374051675 16.9330134238 77.9374051675 57.2802626059 c 0
 77.9374051675 106.727348145 96.496273957 139.869343128 114 178 c 0
 159.107328919 276.263197058 196.595262914 377.839187503 232 480 c 0
 283.840923751 629.587635071 335.108318951 779.449911352 395 926 c 0
 435.846310827 1025.94761155 479.565681568 1125.31393134 506 1230 c 0
 508.269778529 1238.98885256 509.351450878 1247.28137991 509.351450878 1254.8804652 c 0
 509.351450878 1297.00315425 476.115717471 1317.81897029 427.772004367 1317.81897029 c 0
 417.616762637 1317.81897029 407.417355155 1316.74494907 397.151034827 1316.74494907 c 0
 368.702268015 1316.74494907 339.655389418 1322.41913837 339.655389418 1350.73094494 c 0
 339.655389418 1380.91939069 382.935210266 1395.60704058 407.008424743 1401.03304009 c 0
 424.488157384 1404.97289702 442.366261016 1406.81962655 460 1410 c 0
 495.351295858 1416.37586406 528.903425842 1428.03825871 565.670099484 1428.03825871 c 0
 599.682810498 1428.03825871 632.951688348 1418.29879921 666 1410 c 0
 690.430487442 1403.86523245 715.849352888 1398.11408318 736 1383 c 0
 750.259943905 1372.30426516 774.833632903 1340.31037314 774.833632903 1314.65566562 c 0
 774.833632903 1269.71029352 709.908661148 1287.81525427 682 1272 c 0
 665.062998061 1262.40215541 657.094314552 1243.10522797 650 1224 c 0
 586.549305927 1053.12514435 519.491998311 883.469859346 456.19208836 712.424809709 c 1
 464.306335204 696.528380432 475.343123724 683.951855445 493.505713778 683.951855486 c 0
 496.474033318 683.951855486 499.632679446 684.287768162 503 685 c 0
 543.236711164 693.510584686 574.517596331 722.559723379 601 747 c 0
 617.824555236 762.527170008 634.619789782 778.097417669 652 793 c 0
 669.153327321 807.708042621 689.452868819 826.12317192 718.818527366 826.12317192 c 0
 751.286583745 826.12317192 771.689248964 803.246920485 788 785 c 0
 818.526749635 750.84956928 859.161294525 712.523533802 859.161294525 651.54431373 c 0
 859.161294525 588.855491871 819.611153377 541.924755631 787 507 c 0
 700.330746319 414.181985547 597.225938022 342.526434503 440.156929017 323.382834124 c 1
 484.613288689 253.965053864 536.892357368 191.761196805 585 128 c 0
 638.715978075 56.8055938269 684.597305119 -20.7965814711 739 -92 c 0
 770.797384277 -133.617101244 805.265892769 -173.115589932 838 -214 c 0
 867.250289548 -250.533173917 897.331969662 -286.492832049 931 -319 c 0
 951.198928118 -338.502475855 970.929206273 -358.510707883 989 -380 c 0
 1011.80943381 -407.124352899 1032.91109775 -430.591028126 1082.0741083 -430.591028126 c 0
 1086.69120098 -430.591028126 1091.28214722 -430.508272092 1095.8335047 -430.508272092 c 0
368.887443074 464.161806647 m 1
 380.760445047 431.751485363 395.034748341 401.331271457 410.966068909 372.356872985 c 1
 498.176309737 385.377989504 568.201730291 432.308165937 624 478 c 0
 655.384876586 503.700305413 686.194801906 531.598442053 706 567 c 0
 716.61644391 585.976768244 723.01453656 607.477445835 723.01453656 629.208239055 c 0
 723.01453656 662.18332269 713.378202324 712.182928753 680.039451663 712.182928753 c 0
 674.662514957 712.182928753 668.6690346 710.882346603 662 708 c 0
 641.396996737 699.095413348 623.404822218 685.172070084 606 671 c 0
 524.321510378 604.492381319 449.116724386 532.113351995 368.887443074 464.161806647 c 1
EndSplineSet
EndChar

StartChar: U
Encoding: 85 85 53
Width: 1556
VWidth: 0
Flags: HW
LayerCount: 2
Fore
SplineSet
125.063435137 855.358371193 m 0
 62.4327410909 855.358371193 34.7181940661 935.650595426 34.7181940661 998.948049425 c 0
 34.7181940661 1096.77701386 86.547963758 1165.10972886 152 1202 c 0
 199.837134999 1228.96210816 254.304289728 1241.50576406 308 1253 c 0
 345.440160851 1261.01453301 383.520009434 1267.29987067 421.745097086 1267.29987067 c 0
 475.220718241 1267.29987067 520.73222476 1253.23441058 575.207378754 1253.23441058 c 0
 634.923624083 1253.23441058 692.806969328 1282.23442469 745.759330158 1282.23442469 c 0
 818.662174854 1282.23442469 852.055232914 1217.5518346 880 1168 c 0
 888.387361622 1153.12747827 895.414166487 1135.44308612 895.414166487 1119.31768281 c 0
 895.414166487 1104.25253369 889.281016415 1090.54810436 872.394267764 1081.76853986 c 0
 836.809646421 1063.26779204 797.157765315 1052.9433801 768 1028 c 0
 747.918332293 1010.8208827 734.625462022 987.216226177 722 964 c 0
 646.905351515 825.912828151 573.328439139 660.875512925 556 476 c 0
 554.025717134 454.936558876 552.845060414 433.640086318 552.845060414 412.373939558 c 0
 552.845060414 259.336847088 623.039918674 119.897603759 778.119300802 119.897603759 c 0
 850.193968242 119.897603759 904.332431167 147.640776966 954 176 c 0
 1009.97383652 207.959980147 1062.57677631 246.269906467 1108 292 c 0
 1170.39746871 354.819013008 1216.84654289 431.603153991 1258 510 c 0
 1312.61133126 614.033936099 1353.68921091 716.570645784 1353.68921091 863.747883305 c 0
 1353.68921091 948.814876024 1335.63915976 1002.5467241 1292 1046 c 0
 1274.46097697 1063.46431442 1235.31744602 1095.78437535 1235.31744602 1129.92165875 c 0
 1235.31744602 1171.00710363 1290.74600983 1195.42673473 1330.12500199 1195.42673473 c 0
 1405.8110048 1195.42673473 1419.08727267 1133.01526499 1434 1070 c 0
 1439.25192599 1047.80744592 1446.53796988 1026.14177975 1452 1004 c 0
 1462.47100401 961.553023428 1466.2519365 917.71261893 1466.2519365 873.949204605 c 0
 1466.2519365 694.673558091 1415.32727615 527.224171923 1356 394 c 0
 1316.85733366 306.101993403 1268.27833504 221.5996057 1204 150 c 0
 1106.46240445 41.3529204238 946.694596007 -72.4114320535 757.843713225 -72.4114320535 c 0
 662.183159069 -72.4114320535 566.627380568 -38.290587547 494 24 c 0
 413.273817524 93.2367162017 345.725121067 201.843496546 345.725121067 341.500728352 c 0
 345.725121067 405.717431642 360.473196711 461.30700018 382 518 c 0
 410.066405444 591.915699298 447.673053523 661.774600913 484 732 c 0
 543.669860125 847.350728512 602.448189402 964.021699994 668 1074 c 1
 596.713980807 1103.35695305 516.44653594 1127.36921295 421.756552852 1127.36921295 c 0
 362.515701379 1127.36921295 306.618425054 1122.99267409 250 1114 c 0
 218.665746909 1109.02319739 174.420657599 1095.78868302 174.420657599 1058.32200361 c 0
 174.420657599 1012.2870659 220.126892056 1004.05558121 220.126892056 956.440223427 c 0
 220.126892056 907.734501428 172.917245153 855.358371193 125.063435137 855.358371193 c 0
  Spiro
    346 356 o
    382 518 o
    484 732 o
    602 958 o
    668 1074 v
    542 1114 o
    402 1127 o
    250 1114 o
    204 1100 c
    178 1074 c
    190 1018 c
    210 994 c
    220 952 c
    178 876 c
    116 856 c
    50 918 c
    36 1024 c
    152 1202 o
    308 1253 o
    436 1267 o
    628 1258 o
    736 1282 o
    818 1256 o
    880 1168 o
    896 1126 c
    888 1094 c
    854 1074 c
    806 1052 c
    768 1028 c
    722 964 c
    626 762 o
    556 476 o
    580 260 o
    736 124 o
    954 176 o
    1108 292 o
    1258 510 o
    1340 726 o
    1352 910 o
    1292 1046 o
    1252 1088 c
    1240 1148 c
    1272 1180 c
    1332 1196 c
    1396 1170 c
    1434 1070 c
    1452 1004 c
    1466 854 o
    1422 576 o
    1356 394 o
    1204 150 o
    1032 10 o
    776 -72 o
    494 24 o
    378 184 o
    0 0 z
  EndSpiro
EndSplineSet
EndChar

StartChar: V
Encoding: 86 86 54
Width: 1226
VWidth: 0
Flags: HW
LayerCount: 2
Fore
SplineSet
99 -50 m 25
 528 1252 l 25
 328 1252 l 25
 328 1332 l 25
 884 1332 l 25
 880 1252 l 25
 760 1252 l 25
 391 268 l 25
 440 268 l 25
 1272 1252 l 25
 1104 1252 l 25
 1116 1332 l 25
 1624 1332 l 25
 1616 1252 l 25
 1424 1252 l 25
 254 -50 l 25
 99 -50 l 25
EndSplineSet
EndChar

StartChar: C
Encoding: 67 67 55
Width: 1058
VWidth: 0
Flags: HW
LayerCount: 2
Back
SplineSet
-188 48 m 25
 1501 48 l 1049
-155 -27 m 25
 1447 -27 l 1049
-152 1314 m 25
 1660 1314 l 1049
-116 1385 m 25
 1639 1385 l 1049
378 1507 m 25
 378 -140 l 1049
215 1495 m 25
 215 -179 l 1049
EndSplineSet
Fore
SplineSet
1046 988 m 0
 1046 1025 1057 1058 1057 1095 c 0
 1057 1227 1019 1294 937 1294 c 0
 855 1294 760 1202 729 1150 c 0
 629 985 532 808 454 623 c 0
 411 523 378 375 378 294 c 0
 378 195 428 89 545 89 c 0
 672 89 766 212 796 276 c 0
 808 301 836 362 856 362 c 0
 878 362 878 336 878 313 c 0
 878 292 873 271 866 251 c 0
 838 172 776 100 713 51 c 0
 656 7 579 -26 483 -26 c 0
 384 -26 342 1 291 70 c 0
 243 134 215 221 215 324 c 0
 215 487 260 624 324 759 c 0
 389 897 471 1035 560 1157 c 0
 639 1266 753 1388 936 1388 c 0
 1008 1388 1062 1360 1125 1360 c 0
 1150 1360 1166 1364 1190 1364 c 0
 1218 1364 1223 1354 1234 1330 c 0
 1242 1313 1241 1296 1241 1279 c 0
 1241 1251 1232 1222 1222 1197 c 0
 1195 1130 1153 1051 1131 981 c 0
 1125 963 1112 962 1088 962 c 0
 1064 962 1046 963 1046 988 c 0
EndSplineSet
EndChar

StartChar: R
Encoding: 82 82 56
Width: 1573
VWidth: 0
Flags: HW
LayerCount: 2
Fore
SplineSet
858 1070 m 0
 845.085766449 1036.61708496 833.122682413 1002.86276604 819.49898258 969.763049309 c 0
 802.844722082 929.300376801 775.757014096 890.14458275 775.757014096 838.787827099 c 0
 775.757014096 803.806114343 793.361952119 775.988187371 830.999143994 775.988187371 c 0
 847.644552945 775.988187371 861.106812715 780.456612728 876 784 c 0
 950.424767363 801.707141419 1021.94910971 802.940386869 1084 834 c 0
 1160.38828562 872.236205603 1215.33313342 948.341523441 1238 1038 c 0
 1244.04386162 1061.90641088 1247.5900417 1086.78392834 1247.5900417 1111.47678719 c 0
 1247.5900417 1234.00015915 1164.85103948 1293.57612675 1064 1317 c 0
 1050.69177819 1320.09099542 1038.27664974 1321.58625045 1026.78111836 1321.58625045 c 0
 963.694240459 1321.58625045 942.613494163 1278.61036658 924 1228 c 0
 904.295758787 1174.42387603 878.59587169 1123.23972437 858 1070 c 0
  Spiro
    858 1070 o
    780 870 o
    778 816 c
    800 784 c
    876 784 c
    1084 834 o
    1238 1038 o
    1232 1194 o
    1140 1290 o
    1064 1317 o
    1014 1322 c
    964 1302 c
    924 1228 c
    0 0 z
  EndSpiro
93.9145659979 69.0180490428 m 0
 130.59214209 69.0180490428 166.127052699 50.0472213839 198.360354414 50.0472213839 c 0
 240.927241407 50.0472213839 255.319729279 91.4895975452 265 127 c 0
 317.959289823 321.272014653 417.237656334 499.482115504 488 688 c 0
 519.463815511 771.822717438 549.225360953 856.277520986 580.939155654 940.005980131 c 0
 612.652950356 1023.73443928 649.951930069 1107.03227588 660 1196 c 0
 661.27192895 1207.26192639 662.102660632 1217.84550605 662.102660632 1227.60302057 c 0
 662.102660632 1258.76347284 653.630584188 1281.4994397 624 1291 c 0
 606.159326558 1296.720319 587.95856789 1298.01486962 568.669794043 1298.01486962 c 0
 529.363411634 1298.01486962 490.196413898 1291.91397399 450.90757564 1291.91397399 c 0
 434.167020206 1291.91397399 417.980941491 1293.44304136 401.510495878 1293.44304136 c 0
 386.071255436 1293.44304136 358.404396098 1281.65272975 338.633988264 1281.65272975 c 0
 325.200252212 1281.65272975 315.58516529 1287.41006507 315.58516529 1304.68109179 c 0
 315.58516529 1331.76675122 342.763326204 1348.93312366 360 1360 c 0
 396.905954968 1383.69561812 431.607871802 1398.11110562 489.2910874 1398.11110562 c 0
 521.0416405 1398.11110562 552.830957037 1397.50074428 584.601798701 1397.50074428 c 0
 708.459261671 1397.50074428 824.875035364 1409.11707004 946.626910937 1409.11707004 c 0
 1129.38716327 1409.11707004 1310.14068519 1366.81137473 1381 1245 c 0
 1407.56029751 1199.34126958 1416.34308083 1145.56758461 1416.34308083 1092.49719709 c 0
 1416.34308083 988.959449307 1390.24702104 903.272952643 1338 845 c 0
 1262.46043012 760.748042837 1125.26815597 728.425042598 995 707 c 1
 1069.48223687 429.447414638 1189.4147558 174.154554192 1292 -81 c 0
 1329.6200559 -174.57026604 1372.45680721 -267.509100163 1437 -345 c 0
 1487.51508152 -405.648674992 1547.23379963 -458.901190903 1614 -501 c 0
 1645.42939626 -520.817514637 1686.33781544 -545.063932173 1733.18554477 -545.063932173 c 0
 1782.56077669 -545.063932173 1810.18311709 -507.92591087 1810.18311709 -456.683914826 c 0
 1810.18311709 -420.916071759 1798.1919743 -401.328598291 1782.54288598 -380.359186955 c 0
 1767.48597376 -360.183277717 1783.14032792 -340.83891734 1794 -328 c 0
 1813.4020065 -305.061852707 1830.199946 -284.670654152 1857 -269 c 0
 1867.25273613 -263.004971708 1876.51093423 -260.467549229 1884.84980099 -260.467549229 c 0
 1911.42636394 -260.467549229 1928.66488912 -286.241223942 1939 -308 c 0
 1956.63307654 -345.123371782 1975.1406142 -386.314626495 1975.1406142 -437.706151484 c 0
 1975.1406142 -590.733295093 1820.99433308 -651.107086038 1676.72304641 -651.107086038 c 0
 1432.83629636 -651.107086038 1308.52148194 -511.278759378 1221 -352 c 0
 1180.00523838 -277.394376016 1143.4270358 -200.457743898 1106 -124 c 0
 1060.28306223 -30.6072467292 1015.9995033 63.733634759 982 162 c 0
 952.87015519 246.191934924 928.827887937 332.046517471 902 417 c 0
 879.381879995 488.622785484 864.231320316 562.620169171 838 633 c 0
 828.477099976 658.550375834 801.848206267 715.564855795 766.460591758 715.564855795 c 0
 736.02821985 715.564855795 722.076092812 682.715719954 714 658 c 0
 655.98288899 480.446980032 574.731948887 321.661186295 520 143 c 0
 516.510161128 131.60813902 514.947156067 121.642324135 514.947156067 112.791791261 c 0
 514.947156067 77.2512341486 540.15118721 59.6950094374 567 40 c 0
 584.915787354 26.8578322711 605.736030086 14.0227052335 622.010204503 -1.09820960818 c 0
 630.492286213 -8.97921370203 634.058334856 -16.5168883872 634.058334856 -23.471426308 c 0
 634.058334856 -47.6529605139 590.944326005 -64.7842926226 561.467563724 -64.7842926226 c 0
 540.723575154 -64.7842926226 520.584529284 -61.7723947367 499.177088479 -61.7723947367 c 0
 451.464123039 -61.7723947367 404.247694291 -72.5265693501 357 -80 c 0
 318.814824467 -86.0399616423 280.329490444 -89.956298039 242 -95 c 0
 201.234460964 -100.364256785 162.121588366 -107.130208895 119.769936295 -107.130208895 c 0
 72.7533584436 -107.130208895 25.9560033306 -94.7324769164 25.9560033306 -46.6461761503 c 0
 25.9560033306 12.5182218825 31.1707874878 69.0180490428 93.9145659979 69.0180490428 c 0
  Spiro
    824 1405 o
    1014 1407 o
    1230 1362 o
    1381 1245 o
    1416 1074 o
    1338 845 o
    1203 759 o
    995 707 v
    1125 328 o
    1292 -81 o
    1437 -345 o
    1614 -501 o
    1671 -531 c
    1737 -545 c
    1783 -529 c
    1808 -473 c
    1792 -392 c
    1776 -367 c
    1794 -328 c
    1826 -291 c
    1857 -269 c
    1883 -259 c
    1939 -308 c
    1966 -376 c
    1975 -445 o
    1908 -580 o
    1724 -649 o
    1387 -560 o
    1221 -352 o
    1106 -124 o
    982 162 o
    902 417 o
    838 633 o
    800 697 c
    769 714 c
    739 704 c
    714 658 c
    639 454 o
    538 201 o
    520 143 c
    514 98 c
    567 40 c
    604 12 c
    633 -20 c
    615 -52 c
    585 -63 c
    511 -62 c
    357 -80 c
    242 -95 c
    129 -107 c
    65 -99 c
    31 -72 c
    31 -7 c
    46 53 c
    96 69 c
    148 61 c
    195 49 c
    237 66 c
    265 127 c
    488 688 o
    660 1196 o
    662 1237 c
    654 1271 c
    624 1291 c
    572 1298 c
    443 1292 c
    364 1289 c
    321 1289 c
    318 1316 c
    360 1360 c
    432 1393 c
    505 1398 c
    648 1398 c
    0 0 z
  EndSpiro
EndSplineSet
EndChar

StartChar: Q
Encoding: 81 81 57
Width: 1508
VWidth: 0
Flags: HW
LayerCount: 2
Fore
SplineSet
264.457681837 -53.6370907641 m 0
 264.457681837 -113.472704275 322.533378976 -136.106273736 387.5295338 -136.106273736 c 0
 525.362470828 -136.106273736 640.227209345 -95.9777142587 712 -24 c 1
 649.66997791 35.7961443442 557.476749126 69.0617945754 440.797336011 69.0617945754 c 0
 354.775154933 69.0617945754 264.457681837 33.7570048425 264.457681837 -53.6370907641 c 0
  Spiro
    494 66 o
    344 52 o
    266 -36 o
    282 -100 o
    360 -135 o
    490 -126 o
    608 -94 o
    712 -24 v
    610 40 o
    0 0 z
  EndSpiro
68.833161491 -68.3266461303 m 0
 68.833161491 -28.2293160918 82.9834329336 11.5459264901 104 46 c 0
 171.074513216 155.960404175 290.058773875 210.978718913 460.633728614 210.978718913 c 0
 637.291615332 210.978718913 768.549386252 165.140547966 874 78 c 1
 946.537705056 164.164653227 1014.76810318 254.199955536 1074 350 c 0
 1161.0051294 490.719708682 1218.67209703 636.396793814 1218.67209703 849.850942958 c 0
 1218.67209703 1064.25410185 1165.06223165 1228.35960396 1015.39540571 1298.16516144 c 0
 974.18056878 1317.38802295 928.666410253 1327.13257782 883.184185493 1327.13257782 c 0
 678.534660973 1327.13257782 564.910708677 1153.47137164 510 996 c 0
 485.58811858 925.992299422 468.566552366 860.455089588 468.566552366 778.273141763 c 0
 468.566552366 649.029359712 517.323304315 540.813494438 606.831345269 495.144684936 c 0
 631.321106462 482.649514371 658.768382823 475.991097477 686.259615105 475.991097477 c 0
 752.83872158 475.991097477 809.899732126 509.625882995 850 542 c 0
 878.58826167 565.080138297 910.270865617 597.560757136 910.270865617 645.370284428 c 0
 910.270865617 669.602426785 903.845734685 687.441771739 892 704 c 1
 862.08546336 676.248878098 808.821865219 638.221533265 755.545530632 638.221533265 c 0
 688.45794342 638.221533265 651.437560243 693.139971522 651.437560243 761.732907315 c 0
 651.437560243 871.848920233 712.828548382 956.510907724 819.635102156 956.510907724 c 0
 947.812885881 956.510907724 1016.91481886 848.238337925 1016.91481886 714.841197279 c 0
 1016.91481886 511.195786514 871.78800746 390.154030692 664.990711348 390.154030692 c 0
 624.854919239 390.154030692 584.712701716 395.4538444 546 406 c 0
 378.879506926 451.527143437 227.916247903 608.62066112 227.916247903 817.809597697 c 0
 227.916247903 1036.9344783 391.462949679 1204.38009056 530 1304 c 0
 622.131225706 1370.25017885 732.360345102 1426.41378196 881.632037898 1426.41378196 c 0
 1075.79110837 1426.41378196 1237.4698937 1336.52117643 1332 1222 c 0
 1407.69148258 1130.3014082 1447.02540798 1019.300086 1447.02540798 889.209345842 c 0
 1447.02540798 778.291812139 1416.19696481 668.196396934 1368 568 c 0
 1315.1428942 458.115662383 1242.58312779 358.886594546 1166 264 c 0
 1099.50069701 181.607277442 1029.63189309 101.971725143 958 24 c 1
 1002.64583067 -9.56058505192 1045.23101537 -45.8233977725 1086 -84 c 0
 1150.02705121 -143.955755286 1209.61376801 -208.667425655 1276 -266 c 0
 1466.7032076 -430.695381859 1728.29126091 -524.521335876 2072.26314053 -524.521335876 c 0
 2166.54621921 -524.521335876 2260.88127341 -516.760706965 2354 -502 c 1
 2362 -538 l 1
 2232.99649325 -629.684377083 2082.94183165 -683.403244009 1880.17736451 -683.403244009 c 0
 1837.36525548 -683.403244009 1794.51445327 -680.791953085 1752 -676 c 0
 1315.0493598 -626.749761386 1028.80088174 -363.810001341 814 -80 c 1
 741.316700415 -130.022066716 661.557858549 -169.66003755 578 -198 c 0
 491.813396517 -227.231542656 401.571563807 -248.370929153 310.698102937 -248.370929153 c 0
 188.173766503 -248.370929153 68.833161491 -193.243944584 68.833161491 -68.3266461303 c 0
  Spiro
    228 826 o
    336 1116 o
    530 1304 o
    696 1394 o
    860 1426 o
    1122 1376 o
    1332 1222 o
    1446 924 o
    1368 568 o
    1166 264 o
    958 24 v
    1086 -84 o
    1276 -266 o
    1528 -424 o
    1838 -508 o
    2354 -502 v
    2362 -538 v
    2082 -662 o
    1752 -676 o
    1312 -538 o
    1040 -334 o
    814 -80 v
    578 -198 o
    290 -248 o
    138 -202 o
    70 -88 o
    104 46 o
    240 170 o
    418 210 o
    638 192 o
    874 78 v
    1074 350 o
    1196 632 o
    1218 892 o
    1128 1208 o
    874 1327 o
    646 1228 o
    510 996 o
    470 816 o
    542 548 o
    688 476 o
    850 542 o
    904 612 o
    892 704 v
    818 654 o
    698 656 o
    652 778 o
    702 908 o
    806 956 o
    948 906 o
    1016 742 o
    970 538 o
    776 404 o
    546 406 o
    302 580 o
    0 0 z
  EndSpiro
EndSplineSet
EndChar

StartChar: A
Encoding: 65 65 58
Width: 1568
VWidth: 0
Flags: HW
LayerCount: 2
Fore
SplineSet
1245 661 m 1
 1318.25225073 817.747749268 1394.41505137 971.58494863 1470 1126 c 1
 1430 1136 l 1
 975 678 l 1
 1245 661 l 1
  Spiro
    1328 836 v
    1470 1126 v
    1430 1136 v
    975 678 v
    1245 661 v
    0 0 z
  EndSpiro
117.359263372 -31.2490481569 m 0
 83.8236398427 -31.2490481569 44.1747626055 -13.829781559 44.1747626055 23.9723642233 c 0
 44.1747626055 51.8964673439 72.1906644374 75.0246634183 97.3762694309 80.8225045047 c 0
 136.579047028 89.8471626263 176.695943948 84.2351414766 215 96 c 0
 243.38027771 104.716830188 269.374621579 120.020434213 293 138 c 0
 361.5416129 190.162061334 419.633938027 254.659829177 483 313 c 0
 622.63546466 441.56025146 758.985552363 573.664586662 890 711 c 0
 1110.69300811 942.340634842 1333.46182707 1170.47946404 1573 1383 c 1
 1660 1381 l 1
 1569.06035669 1143.12899625 1483.55755751 902.128548608 1393 663 c 0
 1344.43690961 534.763090345 1286.09322629 410.177004859 1243 280 c 0
 1233.54204626 251.429196741 1214.73370321 198.217628422 1214.73370321 153.850464544 c 0
 1214.73370321 123.558003926 1223.5016177 97.3885530614 1250 86 c 0
 1273.38864784 75.9479578062 1311.2113237 79.5543046502 1340 78 c 1
 1345 16 l 1
 1284.73807774 4.11679751857 1223.25626711 -0.44308872402 1161.80209433 -0.44308872402 c 0
 1109.89642881 -0.44308872402 1059.6662995 3.61558607375 1008.6296829 3.61558607375 c 0
 980.63155139 3.61558607375 952.586582746 -0.771800293558 924.863417476 -0.771800293558 c 0
 896.333543409 -0.771800293558 871.883483965 10.7326741054 871.883483965 38.2598217623 c 0
 871.883483965 109.236563981 945.554109978 106.998089809 1010 113 c 1
 1230 575 l 1
 855 568 l 1
 784.416352459 512.237678924 726.42863816 442.366210184 673 370 c 0
 641.546595773 327.398059549 607.138132998 287.087793659 575 245 c 0
 558.131851401 222.909632844 538.04347143 190.546206785 538.04347143 156.765538673 c 0
 538.04347143 112.453306432 573.786400084 78.429941188 616.624311769 78.429941188 c 0
 628.631341252 78.429941188 641.038854513 81.3341075637 653 88 c 1
 640 0 l 1
 610.55351851 0.770653891122 581.097920565 1.1260279761 551.641564313 1.1260279761 c 0
 539.149690654 1.1260279761 526.612159015 1.13888513389 514.055751592 1.13888513389 c 0
 412.030766103 1.13888513389 308.759581976 0.290042353146 218.609316447 -15.2019028993 c 0
 188.165392455 -20.4335636271 150.496093565 -31.2490481569 117.359263372 -31.2490481569 c 0
  Spiro
    293 138 o
    483 313 o
    890 711 o
    1348 1176 o
    1573 1383 v
    1660 1381 v
    1548 1083 o
    1393 663 o
    1243 280 o
    1218 175 o
    1220 128 c
    1228 106 c
    1250 86 c
    1280 81 c
    1340 78 v
    1345 16 v
    1128 0 o
    938 0 c
    903 0 c
    873 33 c
    883 73 c
    915 101 c
    980 111 c
    1010 113 v
    1230 575 v
    855 568 v
    673 370 o
    575 245 o
    538 156 o
    578 88 o
    653 88 v
    640 0 v
    458 0 o
    315 -5 o
    123 -31 o
    73 -21 o
    45 18 o
    65 66 o
    133 85 o
    215 96 o
    0 0 z
  EndSpiro
EndSplineSet
EndChar

StartChar: D
Encoding: 68 68 59
Width: 1500
VWidth: 0
InSpiro: 1
Flags: HW
LayerCount: 2
Fore
SplineSet
1098 537 m 0
 1132.08938471 620.735977696 1148.53564961 710.822329344 1155 801 c 0
 1163.06411813 913.494426467 1160.81938137 1030.50483566 1116 1134 c 0
 1089.05530083 1196.21964658 1042.46840061 1249.66710958 984 1284 c 0
 949.962593284 1303.98690819 913.859123772 1320.83271287 876 1332 c 0
 865.274534586 1335.16368526 854.296996295 1337.62555833 843.146969007 1338.47491352 c 0
 831.996941718 1339.32426871 820.617729204 1338.50832429 810 1335 c 0
 799.592791156 1331.56123613 789.971927525 1325.45738254 783 1317 c 0
 777.506479075 1310.33601679 773.756332217 1302.37944482 771.068016135 1294.17210658 c 0
 768.379700053 1285.96476834 766.708611777 1277.46570081 765 1269 c 0
 728.67194102 1089.00447239 677.267323321 912.437081736 630 735 c 0
 593.592118837 598.328241753 550.472627868 463.585171977 504 330 c 0
 486.519766544 279.753218195 469.634836586 229.126748357 459 177 c 0
 456.37208421 164.11924683 454.166064241 150.574604575 458 138 c 0
 461.402908324 126.839086185 469.364621843 117.474383179 478.784698991 110.589041592 c 0
 488.204776139 103.703700005 499.066664854 99.0752870864 510 95 c 0
 544.461768412 82.1547338564 581.300408553 74.6011811273 618 77 c 0
 660.456773053 79.7751292168 701.157907916 95.7176323899 738 117 c 0
 804.053931019 155.157009075 862.191436885 205.951523125 915 261 c 0
 961.473460397 309.44466615 1002.73894677 362.874468712 1038 420 c 0
 1061.04808105 457.339607143 1081.45470783 496.358720387 1098 537 c 0
  Spiro
    1098 537 o
    1155 801 o
    1116 1134 o
    984 1284 o
    876 1332 o
    810 1335 c
    783 1317 c
    765 1269 c
    630 735 o
    504 330 o
    459 177 c
    458 138 c
    510 95 c
    618 77 o
    738 117 o
    915 261 o
    1038 420 o
    0 0 z
  EndSpiro
378 630 m 0
 410.813986473 746.511225906 436.929181656 864.850084771 471 981 c 0
 482.364472829 1019.74232026 494.795980065 1058.16151493 506.64436572 1096.75859227 c 0
 518.492751375 1135.35566961 530.436858139 1174.6292 531 1215 c 0
 531.256203156 1233.36682208 528.856904464 1251.95920616 522 1269 c 0
 516.858559879 1281.77751814 509.03225939 1293.75447825 498 1302 c 0
 488.39697718 1309.1773089 476.710127406 1313.2591987 464.832423375 1314.88768185 c 0
 452.954719344 1316.51616499 440.855942108 1315.78001324 429 1314 c 0
 395.413726291 1308.95746426 363.136825292 1295.42198965 336 1275 c 1
 306 1311 l 1
 363.570255633 1350.24611684 427.782271757 1379.65963385 495 1398 c 0
 560.315694564 1415.82139601 628.305480108 1423.09274365 696 1422 c 0
 788.100304496 1420.51329142 879.618780554 1405.26373736 969 1383 c 0
 1066.4177167 1358.73447228 1163.57498011 1323.10179489 1240 1258 c 0
 1311.55194875 1197.04927602 1360.41726681 1112.54160757 1389 1023 c 0
 1427.75206409 901.600758978 1436.23195648 770.817988099 1416 645 c 0
 1395.08020083 514.904472871 1339.78658658 390.512756563 1257 288 c 0
 1182.28705044 195.484645437 1086.70756139 120.47042433 981 66 c 0
 877.647841007 12.7432993286 763.820344608 -19.8219495993 648 -30 c 0
 545.175506089 -39.0360021376 441.401953598 -33.975584075 339 -21 c 0
 263.295580384 -11.4073210806 187.205149339 4.85243382146 120 41 c 0
 93.1505709565 55.4414754339 67.9097146889 72.8855021057 45 93 c 1
 105 186 l 1
 201 129 l 1
 237.841585558 220.286051825 273.144206177 312.204835814 306 405 c 0
 332.287724126 479.244855855 356.648469075 554.188027411 378 630 c 0
  Spiro
    378 630 o
    471 981 o
    531 1215 o
    522 1269 c
    498 1302 c
    429 1314 c
    336 1275 v
    306 1311 v
    495 1398 o
    696 1422 o
    969 1383 o
    1240 1258 o
    1389 1023 o
    1416 645 o
    1257 288 o
    981 66 o
    648 -30 o
    339 -21 o
    120 41 o
    45 93 v
    105 186 v
    201 129 v
    306 405 o
    0 0 z
  EndSpiro
EndSplineSet
EndChar

StartChar: E
Encoding: 69 69 60
Width: 1604
VWidth: 0
Flags: HW
LayerCount: 2
Fore
SplineSet
943.77880259 824.308544771 m 0
 1084.86286473 824.308544771 1182.23007952 910.573069389 1201 1033 c 1
 1297 1028 l 1
 1237.9433207 883.965937871 1165.63726671 743.593430589 1152 561 c 1
 1040 565 l 1
 1050 750 l 1
 756 765 l 1
 597 297 l 1
 580.955705534 274.535328027 568.404542075 240.393260267 568.404542075 207.59803087 c 0
 568.404542075 152.867682598 604.284339404 123.683651303 654 114 c 0
 717.999732703 101.534087095 781.274160213 89.2364931284 852.767094408 89.2364931284 c 0
 917.641047581 89.2364931284 970.323716498 101.225001262 1026 114 c 0
 1081.99211821 126.84746744 1138.95505256 142.64832557 1185 177 c 0
 1241.23776889 218.955993763 1276.67312722 283.097040482 1305 351 c 1
 1371 354 l 1
 1269 15 l 1
 944.695431086 -30.3642124331 592.833014458 -21.1632386989 249 -45 c 0
 210.725408101 -47.6534459247 172.402643455 -51.4543916016 135 -60 c 0
 127.580874882 -61.6950924336 121.076093559 -62.522887122 115.359705922 -62.522887122 c 0
 90.2633005361 -62.522887122 80.3626695479 -46.5676840983 75 -18 c 0
 70.5981834943 5.44908674161 61.978581828 40.2792042305 61.978581828 70.9916004343 c 0
 61.978581828 112.131986657 77.2725082374 134.000075534 120 138 c 0
 157.635704298 141.523257935 195.965183953 144.807704587 231 159 c 0
 265.753733031 173.078431159 295.949838052 197.67155557 318 228 c 0
 348.182073765 269.513316278 362.695543379 320.009321165 378 369 c 0
 396.324899921 427.659337534 416.440754784 485.740616519 436 544 c 0
 496.767313481 725.002190018 544.497549737 910.400228478 612 1089 c 0
 645.091663533 1176.55480021 683.885922846 1261.99011476 729 1344 c 1
 480 1359 l 1
 492 1458 l 1
 509.11635094 1457.88676719 526.232851931 1457.83198881 543.349297581 1457.83198881 c 0
 762.178890677 1457.83198881 978.50127033 1470.53110162 1194.87653889 1470.53110162 c 0
 1275.6484446 1470.53110162 1351.94341292 1468.31264144 1430 1464 c 0
 1513.68694551 1459.37628017 1553.41630811 1432.81258145 1557 1347 c 0
 1559.00708418 1298.93976492 1560.01103693 1250.83764012 1560.01103693 1202.73551379 c 0
 1560.01103693 1199.82367277 1560.00735802 1196.91183174 1560 1194 c 1
 1506 1194 l 1
 1482.24145052 1267.13738705 1492.3878077 1351.57235854 1413 1371 c 0
 1384.87779653 1377.88201503 1355.58632942 1377.86624823 1326.67688964 1379.43620069 c 0
 1274.86800907 1382.24972735 1222.81980341 1386.89728631 1168.05508675 1386.89728631 c 0
 1119.47839563 1386.89728631 1071.27819556 1384.76726102 1022.34044969 1384.76726102 c 0
 1001.55417805 1384.76726102 980.768507318 1385.14826326 960 1386 c 1
 783 855 l 1
 834.263657173 835.800726944 884.081764224 824.308544771 943.77880259 824.308544771 c 0
  Spiro
    436 544 o
    612 1089 o
    729 1344 v
    480 1359 v
    492 1458 v
    819 1462 o
    1263 1470 o
    1430 1464 c
    1521 1440 c
    1548 1404 c
    1557 1347 c
    1560 1194 v
    1506 1194 v
    1482 1299 o
    1458 1347 o
    1413 1371 o
    1240 1385 o
    1051 1385 o
    960 1386 v
    783 855 v
    921 825 o
    1058 846 o
    1149 915 o
    1201 1033 v
    1297 1028 v
    1224 846 o
    1170 678 o
    1152 561 v
    1040 565 v
    1050 750 v
    756 765 v
    597 297 v
    570 186 o
    594 141 o
    654 114 o
    792 93 o
    1026 114 o
    1185 177 o
    1275 288 o
    1305 351 v
    1371 354 v
    1269 15 v
    840 -21 o
    492 -33 o
    249 -45 o
    135 -60 c
    96 -60 c
    75 -18 c
    66 99 c
    81 126 c
    120 138 c
    231 159 c
    318 228 c
    378 369 c
    0 0 z
  EndSpiro
EndSplineSet
EndChar

StartChar: G
Encoding: 71 71 61
Width: 1436
VWidth: 0
Flags: HW
LayerCount: 2
Fore
SplineSet
1238.63419944 955.21402549 m 0
 1175.165167 955.21402549 1155.05753583 1012.63434802 1155.05753583 1078.50976206 c 0
 1155.05753583 1086.27583121 1155.15449854 1094.05022137 1155.15449854 1101.80461475 c 0
 1155.15449854 1229.16443302 1064.52797473 1297.99553221 939.530046067 1297.99553221 c 0
 894.370548177 1297.99553221 849.230917577 1286.75042891 808 1268 c 0
 717.58625322 1226.88288131 646.027460231 1152.61065014 588 1072 c 0
 496.118601702 944.360099463 428.503599619 799.418557587 386 648 c 0
 364.652352984 571.949266697 350.622734031 493.041175514 350.622734031 414.253271223 c 0
 350.622734031 259.884209391 402.524924076 143.626173546 492 72 c 0
 545.859343776 28.8847674665 614.313721961 3.49260752067 683.20118584 3.49260752067 c 0
 928.783889883 3.49260752067 936.219513524 255.185855518 976 460 c 1
 808 512 l 1
 808 580 l 1
 1396 640 l 1
 1364 520 l 1
 1267.22189453 518.257675528 1235.63673151 431.925464733 1216 348 c 0
 1194.28972853 255.212428854 1168.58014134 168.27889953 1156 68 c 1
 1061.01467157 1.30423320102 957.771341027 -54.3066237308 848 -92 c 0
 773.98399501 -117.415678627 696.375769103 -134.181209145 618.132538592 -134.181209145 c 0
 338.15163823 -134.181209145 192.040446777 71.3743228438 132 296 c 0
 111.077337468 374.276686658 99.9207779118 452.43113643 99.9207779118 535.520818441 c 0
 99.9207779118 661.688772399 128.340158211 787.127030426 176 904 c 0
 258.582202923 1106.51068672 396.808235869 1302.52227995 588 1400 c 0
 672.499890732 1443.08165015 756.786544363 1467.38030114 868.276347766 1467.38030114 c 0
 933.333499859 1467.38030114 987.938469018 1458.07359679 1036 1436 c 0
 1063.60761234 1423.32043506 1085.71207983 1406.56006739 1121.71681378 1406.56006739 c 0
 1165.788231 1406.56006739 1210.37403951 1424.08599139 1257.13858201 1424.08599139 c 0
 1308.13945575 1424.08599139 1344.97862939 1405.67230905 1360 1368 c 1
 1300 984 l 1
 1285.13903124 965.992971013 1261.95454295 955.21402549 1238.63419944 955.21402549 c 0
  Spiro
    100 524 o
    176 904 o
    356 1208 o
    588 1400 o
    796 1463 o
    944 1462 o
    1036 1436 c
    1104 1408 c
    1184 1416 c
    1264 1424 c
    1320 1412 c
    1360 1368 v
    1300 984 v
    1172 992 c
    1156 1048 c
    1148 1168 c
    1060 1268 c
    972 1296 c
    808 1268 o
    588 1072 o
    386 648 o
    355 340 o
    492 72 o
    700 4 o
    876 96 o
    932 228 o
    976 460 v
    808 512 v
    808 580 v
    1396 640 v
    1364 520 v
    1268 476 c
    1216 348 c
    1168 144 c
    1156 68 v
    848 -92 o
    388 -76 o
    132 296 o
    0 0 z
  EndSpiro
EndSplineSet
EndChar

StartChar: H
Encoding: 72 72 62
Width: 1886
VWidth: 0
Flags: HW
LayerCount: 2
Fore
SplineSet
648 1242 m 25
 453 1263 l 25
 468 1335 l 25
 1011 1317 l 25
 999 1233 l 25
 807 1215 l 25
 648 698 l 25
 1407 731 l 25
 1560 1218 l 25
 1350 1272 l 25
 1404 1341 l 25
 1653 1308 l 25
 1875 1359 l 25
 1890 1233 l 25
 1761 1185 l 25
 1395 99 l 25
 1536 78 l 25
 1509 -21 l 25
 1257 0 l 25
 1005 -18 l 25
 1017 84 l 25
 1215 108 l 25
 1377 636 l 25
 609 603 l 25
 417 87 l 25
 642 75 l 25
 627 -24 l 25
 351 0 l 25
 75 -42 l 25
 87 85 l 25
 261 108 l 25
 648 1242 l 25
EndSplineSet
EndChar

StartChar: L
Encoding: 76 76 63
Width: 1352
VWidth: 0
Flags: HW
LayerCount: 2
Fore
SplineSet
292 140 m 25
 648 1284 l 25
 440 1288 l 25
 456 1380 l 25
 1076 1384 l 25
 1052 1284 l 25
 860 1272 l 25
 524 164 l 25
 672 112 l 25
 1040 96 l 25
 1156 232 l 25
 1260 324 l 25
 1300 316 l 25
 1248 28 l 25
 1220 0 l 25
 604 20 l 25
 172 -24 l 25
 128 28 l 25
 112 128 l 25
 292 140 l 25
EndSplineSet
EndChar

StartChar: M
Encoding: 77 77 64
Width: 2048
VWidth: 0
Flags: H
LayerCount: 2
Fore
SplineSet
572 1216 m 1024
  Spiro
    572 1216 {
    0 0 z
  EndSpiro
1707.06572477 866.857828531 m 0,0,0
 1707.06572477 899.221482614 1686.16125223 935.133146187 1655.98740075 935.133146187 c 0,0,0
 1619.57529549 935.133146187 1579.86703047 890.629336035 1566 874 c 0,1,2
 1357.98946454 624.553869369 1157.21042455 369.077549385 964 108 c 0,3,4
 953.006851893 91.1144551324 929.49911324 73.3611074613 903.928861143 73.3611074613 c 0,0,0
 857.037050043 73.3611074613 845.530307808 118.72829752 840 160 c 0,1,2
 801.271965678 449.020424474 751.894011978 736.613641295 692 1022 c 1,3,-1
 664 1030 l 1,4,-1
 396 172 l 1,5,-1
 518 72 l 1,6,-1
 510 -18 l 1,7,-1
 80 -16 l 1,8,-1
 90 112 l 1,9,-1
 286 142 l 1,10,-1
 624 1125 l 1,11,12
 599.668562551 1204.47784752 541.853757673 1271.35286109 437.780160404 1271.35286109 c 0,0,0
 417.832487307 1271.35286109 397.952296048 1269.98275227 377.926517301 1269.98275227 c 0,0,0
 352.511853331 1269.98275227 327.097367215 1271.99642504 302 1276 c 1,1,-1
 300 1380 l 1,2,3
 315.559814944 1380.56656224 331.119352085 1380.81640894 346.678167254 1380.81640894 c 0,0,0
 436.741582863 1380.81640894 525.315957492 1370.19396629 616.737712173 1370.19396629 c 0,0,0
 651.857746244 1370.19396629 687.07478998 1373.07072053 721.899166043 1373.07072053 c 0,0,0
 760.875247341 1373.07072053 791.063837948 1367.28993742 814 1346 c 0,1,2
 850.738834886 1311.89806551 855.338894561 1241.78887262 862 1182 c 0,3,4
 892.748326392 906.00860686 940.874901846 631.954496636 1006 362 c 1,5,-1
 1058 350 l 1,6,-1
 1792 1228 l 1,7,8
 1833.48572541 1295.02681268 1903.83677409 1338.65757468 2001.76449481 1338.65757468 c 0,0,0
 2094.66577387 1338.65757468 2171.16418468 1304.70932986 2236 1272 c 1,1,-1
 2206 1212 l 1,2,3
 2185.08119339 1218.89419316 2163.05650096 1222.41218878 2141.03194763 1222.41218878 c 0,0,0
 2026.27052088 1222.41218878 1979.83266723 1137.66450438 1947 1054 c 0,1,2
 1893.07635011 916.591259785 1860.75843413 771.872026671 1820 630 c 0,3,4
 1787.6998879 517.569715 1749.97085277 406.495696183 1726 292 c 0,5,6
 1720.58845518 266.152000438 1715.86703115 239.931362171 1715.86703115 213.565386142 c 0,0,0
 1715.86703115 159.364613447 1739.09257363 123.392565847 1778.47443561 102.976413573 c 0,1,2
 1822.45924018 80.1740263153 1862.83830979 64.2528210588 1900 34 c 1,3,-1
 1880 -52 l 1,4,5
 1804.00248492 -23.765634839 1732.69964208 -11.6684173941 1639.37569532 -11.6684173941 c 0,0,0
 1526.34340471 -11.6684173941 1413.92116615 -26.0629098117 1302 -30 c 1,1,-1
 1288 60 l 1,2,3
 1347.93694782 67.7525232401 1407.19935634 77.5768110268 1452 104 c 0,4,5
 1515.21415705 141.283384364 1538.55082509 210.410329098 1555 292 c 0,6,7
 1579.68435573 414.437050625 1614.94531466 534.688491072 1646 654 c 0,8,9
 1655.18912309 689.304435711 1665.68198654 724.269813506 1677.73070219 758.703396174 c 0,10,11
 1688.60034745 789.767356815 1707.06572477 830.031142081 1707.06572477 866.857828531 c 0,0,0
  Spiro
    572 1216 o
    498 1264 c
    382 1270 c
    302 1276 v
    300 1380 v
    552 1372 o
    688 1372 o
    814 1346 c
    846 1284 c
    862 1182 c
    1006 362 v
    1058 350 v
    1792 1228 v
    1940 1332 o
    2088 1328 o
    2184 1296 o
    2236 1272 v
    2206 1212 v
    2128 1222 c
    2048 1198 c
    1947 1054 c
    1820 630 c
    1726 292 c
    1716 206 c
    1742 130 c
    1820 84 c
    1900 34 v
    1880 -52 v
    1704 -14 o
    1476 -20 o
    1302 -30 v
    1288 60 v
    1378 76 o
    1452 104 o
    1555 292 o
    1604 492 o
    1646 654 o
    1706 864 o
    1693 914 c
    1670 932 c
    1612 920 c
    1566 874 c
    964 108 v
    929 79 c
    878 80 c
    840 160 c
    692 1022 v
    664 1030 v
    396 172 v
    518 72 v
    510 -18 v
    80 -16 v
    90 112 v
    286 142 v
    624 1125 v
    0 0 z
  EndSpiro
EndSplineSet
EndChar

StartChar: N
Encoding: 78 78 65
Width: 1936
VWidth: 0
InSpiro: 1
Flags: HW
LayerCount: 2
Fore
SplineSet
289 105 m 1
 597 1140 l 1
 567.303315393 1168.05665179 532.105851556 1190.26864353 494 1205 c 0
 454.20480024 1220.38444227 411.595805686 1227.56354235 369 1230 c 0
 346.690975547 1231.27606445 324.309024453 1231.27606445 302 1230 c 1
 277 1312 l 1
 353.304562534 1380.08172908 454.73810108 1419.88987408 557 1420 c 0
 650.820755887 1420.10103565 744.316418126 1384.8215159 814 1322 c 0
 862.172332643 1278.5714207 898.769423455 1223.64616949 928.307365277 1165.90428585 c 0
 957.845307099 1108.16240222 981.418165424 1047.60020866 1007 988 c 0
 1054.59144096 877.122111109 1112.3153099 770.977960094 1170 665 c 0
 1215.48028052 581.443906594 1258.92523392 496.736608866 1298 410 c 1
 1332 400 l 1
 1555 1195 l 1
 1318 1248 l 1
 1320 1360 l 1
 1932 1370 l 1
 1935 1250 l 1
 1678 1212 l 1
 1330 -65 l 1
 1285 -65 l 1
 735 1028 l 1
 690 1030 l 1
 430 112 l 1
 642 50 l 1
 628 -58 l 1
 348 -40 l 1
 168 -110 l 1
 42 -75 l 1
 35 32 l 1
 150 82 l 1
 289 105 l 1
  Spiro
    289 105 v
    597 1140 v
    494 1205 c
    369 1230 c
    302 1230 v
    277 1312 v
    557 1420 o
    814 1322 o
    1007 988 o
    1170 665 o
    1298 410 v
    1332 400 v
    1555 1195 v
    1318 1248 v
    1320 1360 v
    1932 1370 v
    1935 1250 v
    1678 1212 v
    1330 -65 v
    1285 -65 v
    735 1028 v
    690 1030 v
    430 112 v
    642 50 v
    628 -58 v
    348 -40 v
    168 -110 v
    42 -75 v
    35 32 v
    150 82 v
    0 0 z
  EndSpiro
EndSplineSet
EndChar

StartChar: P
Encoding: 80 80 66
Width: 1364
VWidth: 0
Flags: HW
LayerCount: 2
Fore
SplineSet
368.798191572 -23.5183674678 m 0
 284.938449736 -23.5183674678 212.771742063 -35.7700347611 138 -60 c 1
 87 -51 l 1
 111 117 l 1
 237 99 l 1
 558 1146 l 1
 529.146673556 1157.68106956 498.83847956 1165.76325463 468 1170 c 0
 437.798058043 1174.14929464 406.698853634 1174.71653054 378 1185 c 0
 354.743120197 1193.33348315 333.790526916 1208.00029844 318 1227 c 1
 327 1296 l 1
 454.897939674 1309.30137404 578.527141282 1320.46423286 710.751814277 1320.46423286 c 0
 920.704120841 1320.46423286 1088.08494349 1273.45537415 1181.38650898 1148.43371219 c 0
 1219.3719558 1097.53420514 1243.00129811 1041.67204874 1243.00129811 964.422418555 c 0
 1243.00129811 862.028743989 1200.55097874 785.435153216 1149 726 c 0
 1076.09625154 641.946397803 980.75856154 590.149289417 837.610987269 590.149289417 c 0
 775.34016723 590.149289417 720.178222405 598.063747201 666 609 c 1
 675 663 l 1
 845.289172538 668.371104469 990.014753408 756.11417796 1050 879 c 0
 1064.87194716 909.466682322 1074.04362378 941.171656353 1074.04362378 976.904712819 c 0
 1074.04362378 1112.07526425 953.998670615 1172.26604837 819.540809643 1172.26604837 c 0
 796.278105935 1172.26604837 773.007016322 1170.45023211 750 1167 c 1
 450 111 l 1
 510.147557271 97.7862361228 562.481766231 65.9970546622 600 27 c 1
 570 -51 l 1
 504.592061374 -32.7770684731 436.695912018 -23.5183674678 368.798191572 -23.5183674678 c 0
  Spiro
    669 1320 o
    1071 1245 o
    1239 1014 o
    1149 726 o
    951 603 o
    765 594 o
    666 609 v
    675 663 v
    858 705 o
    1050 879 o
    1053 1062 o
    864 1170 o
    750 1167 v
    450 111 v
    540 75 c
    600 27 v
    570 -51 v
    342 -24 o
    138 -60 v
    87 -51 v
    111 117 v
    237 99 v
    558 1146 v
    468 1170 c
    378 1185 c
    318 1227 v
    327 1296 v
    0 0 z
  EndSpiro
EndSplineSet
EndChar

StartChar: S
Encoding: 83 83 67
Width: 1172
VWidth: 0
Flags: HW
LayerCount: 2
Fore
SplineSet
551.309070815 53.6454164389 m 0
 689.168965116 53.6454164389 766.872784968 161.894794292 766.872784968 298.022970086 c 0
 766.872784968 373.737848112 741.138029244 425.882459198 712 482 c 0
 691.205214046 522.049113805 668.697958911 561.232746128 644 599 c 0
 591.604334362 679.121617056 521.34672146 746.575268281 471 828 c 0
 445.293588448 869.574458144 427.63025395 911.025693225 427.63025395 967.475266765 c 0
 427.63025395 1014.76477035 441.093806596 1061.75537153 456 1107 c 0
 483.898061723 1191.67872403 514.57204962 1275.1181756 579 1326 c 0
 633.078985898 1368.7087537 709.889217209 1389.35189056 800.422756691 1389.35189056 c 0
 869.920089871 1389.35189056 917.298921231 1369.09514968 960 1338 c 0
 991.525267735 1315.04313457 1023.34763678 1289.12905404 1070 1283 c 1
 1080.57475084 1251.48767394 1086.00666203 1218.2548796 1086.00666203 1185.01584294 c 0
 1086.00666203 1075.25102842 1030.5310161 990.535247484 963 941 c 1
 932 982 l 1
 949.022921966 1015.88861731 958.066062785 1052.15062726 958.066062785 1091.59874359 c 0
 958.066062785 1189.59526979 898.317458107 1270.93520735 822 1298 c 0
 803.825564299 1304.44527931 784.498119737 1307.76284194 765.21559521 1307.76284194 c 0
 662.917839043 1307.76284194 599.975462024 1225.03637748 599.975462024 1123.78057048 c 0
 599.975462024 1024.28306436 651.294740982 959.984512812 700 899 c 0
 742.509203906 845.773651502 786.730770696 793.659514366 823 736 c 0
 851.765277602 690.269997766 876.912870451 642.357879295 901 594 c 0
 930.241445375 535.294196847 960.155103233 478.545427158 960.155103233 397.312772377 c 0
 960.155103233 336.121450544 941.962699416 291.097085974 925 243 c 0
 879.443898697 113.827415659 808.62488872 -12.5422487553 666 -44 c 0
 631.737598886 -51.5570126712 596.58476282 -53.6317873158 561.41573644 -53.6317873158 c 0
 491.2633146 -53.6317873158 435.750131783 -46.9507916313 389 -22 c 0
 349.45224297 -0.893153719398 315.030435814 22.4485256879 265.523698755 34.1624602069 c 0
 224.62807874 43.8388930203 188.187226255 52.2611547988 161 77 c 0
 123.996887184 110.670749319 107.879273071 169.351410042 107.879273071 234.756886873 c 0
 107.879273071 351.815720561 147.624666028 440.831338483 189 523 c 1
 290 466 l 1
 285.520346382 402.639891847 276.616745454 341.512201386 276.616745454 276.32348522 c 0
 276.616745454 167.444080509 327.693351512 110.773275736 408 81 c 0
 453.709034647 64.0536111542 499.339919749 53.6454164389 551.309070815 53.6454164389 c 0
  Spiro
    644 599 o
    471 828 o
    429 942 o
    456 1107 o
    579 1326 o
    783 1389 o
    960 1338 o
    1010 1303 c
    1070 1283 v
    1086 1183 o
    1056 1053 o
    963 941 v
    932 982 v
    958 1086 o
    920 1220 o
    822 1298 o
    700 1294 o
    613 1198 o
    611 1051 o
    700 899 o
    823 736 o
    901 594 o
    952 466 o
    955 343 o
    925 243 o
    881 136 o
    824 56 o
    746 -12 o
    666 -44 o
    524 -53 o
    389 -22 o
    321 16 o
    209 49 o
    161 77 o
    120 146 o
    112 294 o
    132 383 o
    189 523 v
    290 466 v
    277 296 o
    325 132 o
    408 81 o
    537 54 o
    651 76 o
    744 184 o
    763 345 o
    712 482 o
    0 0 z
  EndSpiro
EndSplineSet
EndChar

StartChar: T
Encoding: 84 84 68
Width: 1684
VWidth: 0
Flags: HW
LayerCount: 2
Fore
SplineSet
188.219537901 1056.50438101 m 0
 188.219537901 1002.85167525 144.880354224 945.47507993 89.16449839 945.47507993 c 0
 19.5159021294 945.47507993 -12.0426175149 1015.64515002 -12.0426175149 1085.03622907 c 0
 -12.0426175149 1198.37654517 52.3605243545 1299.90910835 136 1341 c 0
 187.522860544 1366.31245281 246.608124691 1370.77604156 304 1372 c 0
 417.386261341 1374.41811355 530.789060257 1375.24909959 644 1382 c 0
 706.975668894 1385.7553126 770.059977076 1388.11588836 833.132734226 1388.11588836 c 0
 969.479494933 1388.11588836 1100.46988295 1373.97003013 1234.18442604 1373.97003013 c 0
 1343.26114545 1373.97003013 1497.60523544 1356.88643618 1500 1467 c 0
 1501.03108466 1514.41025831 1516.67199702 1546.09958544 1563.87281417 1546.09958544 c 0
 1624.55809579 1546.09958544 1662.17620548 1472.19774755 1662.17620548 1413.90049906 c 0
 1662.17620548 1253.87292004 1460.60252441 1249.33235082 1301.90172126 1249.33235082 c 0
 1204.23932671 1249.33235082 1112.57682621 1253.91140185 1018 1260 c 1
 723 66 l 1
 942 48 l 1
 945 -66 l 1
 615 -57 l 1
 243 -99 l 1
 228 27 l 1
 495 66 l 1
 780 1280 l 1
 709.255165093 1292.28863151 637.41116303 1296.782595 565.567536548 1296.782595 c 0
 480.61177477 1296.782595 397.587660996 1294.73809748 314 1290 c 0
 242.622740558 1285.95403904 150.283446175 1261.54095066 150.283446175 1183.36726122 c 0
 150.283446175 1140.66428075 188.219537901 1105.92656108 188.219537901 1056.50438101 c 0
  Spiro
    644 1382 o
    933 1386 o
    1245 1374 o
    1452 1392 o
    1500 1467 o
    1504 1509 c
    1524 1533 c
    1560 1546 c
    1634 1502 c
    1662 1421 c
    1641 1340 c
    1557 1277 c
    1454 1256 c
    1242 1250 o
    1018 1260 v
    723 66 v
    942 48 v
    945 -66 v
    615 -57 v
    243 -99 v
    228 27 v
    495 66 v
    780 1280 v
    512 1296 o
    314 1290 o
    204 1264 o
    151 1168 c
    180 1100 c
    188 1050 c
    154 976 c
    98 946 c
    0 1014 c
    -12 1090 c
    44 1261 c
    136 1341 c
    304 1372 o
    0 0 z
  EndSpiro
EndSplineSet
EndChar

StartChar: I
Encoding: 73 73 74
Width: 1158
VWidth: 0
Flags: HW
LayerCount: 2
Fore
SplineSet
309 95 m 25
 749 1310 l 25
 534 1310 l 25
 529 1385 l 25
 879 1390 l 25
 1134 1445 l 25
 1174 1350 l 25
 984 1320 l 25
 564 120 l 25
 674 80 l 25
 739 35 l 25
 724 0 l 25
 449 0 l 25
 154 -75 l 25
 64 0 l 25
 89 105 l 25
 309 95 l 25
EndSplineSet
EndChar

StartChar: O
Encoding: 79 79 75
Width: 1256
VWidth: 0
Flags: HW
LayerCount: 2
Fore
SplineSet
257.804577096 226.920865144 m 0
 257.804577096 124.519520696 314.685428779 44.2507419567 417.172494677 44.2507419567 c 0
 492.991167508 44.2507419567 544.094751614 84.2516020701 588 123 c 0
 747.333170634 263.618840027 866.562520771 474.49766563 945 684 c 0
 990.291016301 804.969895185 1035.61198275 927.045157394 1035.61198275 1062.3339469 c 0
 1035.61198275 1180.83835061 967.421731229 1268.10060476 853.562028036 1268.10060476 c 0
 776.948393736 1268.10060476 720.24691698 1230.16435763 677.337688755 1190.63367944 c 0
 622.020513656 1139.67202067 581.1249679 1075.23641812 542 1011 c 0
 476.371110012 903.248734135 413.018014733 793.236630853 369 675 c 0
 317.657168408 537.088204961 257.804577096 374.440718148 257.804577096 226.920865144 c 0
  Spiro
    708 252 o
    945 684 o
    1035 1041 o
    997 1197 o
    882 1266 o
    542 1011 o
    369 675 o
    264 294 o
    279 129 o
    354 57 o
    588 123 o
    0 0 z
  EndSpiro
83.9723596275 316.304067564 m 0
 83.9723596275 653.192840016 247.595289848 919.592954641 414 1116 c 0
 515.803266723 1236.15813018 638.160934811 1353.09235185 846.316909037 1353.09235185 c 0
 1048.90196429 1353.09235185 1171.90695173 1230.03770012 1171.90695173 1026.24545249 c 0
 1171.90695173 849.958010256 1123.08630921 695.261182472 1062 543 c 0
 1008.40931491 409.422097098 932.873201596 284.346853179 837 177 c 0
 760.084442385 90.8795520223 668.761053388 14.4763780457 561 -27 c 0
 512.264699545 -45.7578320948 459.887311745 -56.6399821167 407.808731218 -56.6399821167 c 0
 194.946878694 -56.6399821167 83.9723596275 103.357129331 83.9723596275 316.304067564 c 0
  Spiro
    84 309 o
    183 762 o
    414 1116 o
    672 1320 o
    837 1353 o
    1101 1248 o
    1170 978 o
    1062 543 o
    837 177 o
    561 -27 o
    318 -45 o
    129 105 o
    0 0 z
  EndSpiro
EndSplineSet
EndChar

StartChar: B
Encoding: 66 66 93
Width: 1199
VWidth: 0
Flags: HW
LayerCount: 2
Fore
SplineSet
21 13 m 152
 22 28 25 37 32 51 c 152
 36 60 45 69 49 69 c 259
 120 69 156 74 200 92 c 128
 230 104 257 170 273 217 c 257
 624 1248 l 2
 634 1278 609 1295 585 1296 c 0
 542 1298 503 1298 466 1298 c 0
 437 1298 409 1297 381 1296 c 0
 364 1296 359 1299 356 1309 c 2
 346 1342 l 2
 343 1352 349 1359 360 1360 c 0
 434 1370 507 1374 589 1374 c 0
 807 1374 970 1361 1096 1266 c 0
 1162 1216 1227 1133 1227 1030 c 0
 1227 946 1186 876 1135 823 c 0
 1087 774 1015 732 931 707 c 1
 930 700 l 1
 991 671 1034 625 1064 573 c 0
 1090 528 1110 470 1110 405 c 0
 1110 264 1041 160 954 93 c 0
 861 22 723 -7 550 -7 c 0
 424 -7 355 0 244 0 c 0
 180 0 108 -2 29 -7 c 257
 24 -7 21 5 21 13 c 152
406 158 m 0
 406 86 494 56 582 56 c 0
 664 56 743 84 799 123 c 0
 884 182 951 275 951 407 c 0
 951 479 927 533 892 584 c 0
 847 650 768 683 657 683 c 0
 601 683 577 670 563 631 c 2
 414 198 l 2
 409 183 406 170 406 158 c 0
642 849 m 0
 642 784 728 749 802 749 c 0
 879 749 939 783 984 827 c 0
 1032 874 1080 941 1080 1027 c 0
 1080 1092 1055 1143 1018 1183 c 0
 986 1218 924 1254 850 1272 c 0
 805 1283 782 1265 771 1233 c 2
 647 878 l 2
 643 868 642 858 642 849 c 0
EndSplineSet
EndChar

StartChar: F
Encoding: 70 70 94
Width: 1403
VWidth: 0
Flags: HW
LayerCount: 2
Fore
SplineSet
214 110 m 25
 549 1200 l 25
 324 1220 l 25
 329 1310 l 25
 879 1315 l 25
 1219 1290 l 25
 1294 1270 l 25
 1324 1125 l 25
 1239 1105 l 25
 1209 1205 l 25
 1074 1230 l 25
 774 1235 l 25
 618 805 l 25
 804 760 l 25
 959 955 l 25
 1034 945 l 25
 964 740 l 25
 924 495 l 25
 849 500 l 25
 834 640 l 25
 584 710 l 25
 414 130 l 25
 629 100 l 25
 624 0 l 25
 339 0 l 25
 54 -25 l 25
 34 90 l 25
 214 110 l 25
EndSplineSet
EndChar

StartChar: J
Encoding: 74 74 95
Width: 1016
VWidth: 0
Flags: HW
LayerCount: 2
Fore
SplineSet
973.930979642 1452.34002693 m 0
 1035.55393155 1452.34002693 1085.12759618 1396.00816843 1085.12759618 1333.860989 c 0
 1085.12759618 1276.03091308 1047.19298945 1239.15554729 993.277676975 1231.20850702 c 0
 964.821721 1227.01413964 935.376279172 1227.86650893 906 1226 c 1
 845.251369901 1051.14840814 785.740138474 876.240484941 732.669953485 693.671431555 c 1
 834.906844893 711.742364675 920 728 920 728 c 1
 940 644 l 1
 940 644 823.399164714 615.872605523 702.839645981 591.768787903 c 1
 694.117495695 562.444196137 685.224275809 533.171769839 676 504 c 0
 562.890590062 146.29152059 464.145067241 -239.860846425 198 -448 c 0
 148.936231866 -486.370394298 99.2685730271 -512.728759064 24.3236729775 -512.728759064 c 0
 -82.3623727031 -512.728759064 -193.046978931 -487.788096466 -193.046978931 -378.844453538 c 0
 -193.046978931 -321.798385785 -167.529203133 -270.096976077 -136.138321718 -240.131011153 c 0
 -123.655541288 -228.214857683 -106.477866077 -219.880202349 -86.9946988992 -219.880202349 c 0
 -41.0549985717 -219.880202349 -15.4402103369 -257.16377495 10 -282 c 0
 34.7519032772 -306.164259338 70.1696267547 -342.427953296 114.828528522 -342.427953296 c 0
 147.168923089 -342.427953296 166.857214756 -314.438142637 181 -292 c 0
 205.748837104 -252.734895746 227.176960054 -211.480770936 248 -170 c 0
 309.22272158 -48.0405888625 364.504454313 73.8175478325 412 208 c 0
 453.723957421 325.876799599 493.579629093 444.404730889 534.340099571 562.61820304 c 1
 384.637159359 542.026027517 176.000000006 527.999999998 176 528 c 2
 200 624 l 1
 200 624 470.016551008 650.415254655 570.457593196 666.298328645 c 1
 624.211205165 817.620862414 684.455938705 963.953043951 723 1124 c 0
 725.563211251 1134.64325203 726.757147145 1144.10784834 726.757147145 1152.55615461 c 0
 726.757147145 1208.71119666 674.007540756 1219.96525204 620 1234 c 0
 559.403500793 1249.74699721 508.57367416 1281.92253563 433.711150845 1281.92253563 c 0
 351.538313856 1281.92253563 288.285237549 1242.37385336 247.083551115 1195.40546736 c 0
 218.981994512 1163.37074083 193.849924022 1125.53247976 193.849924022 1072.69215121 c 0
 193.849924022 994.659003993 259.32822005 980.493036466 282.336757869 925.353768551 c 0
 285.871669959 916.882458191 287.507150403 907.855927159 287.507150403 898.874827967 c 0
 287.507150403 864.819267072 263.991204936 831.416953154 231.350589218 831.416953154 c 0
 180.804889116 831.416953154 151.39843543 891.680882764 134 926 c 0
 106.233660239 980.770227661 87.9813727492 1041.23727967 87.9813727492 1102.60830762 c 0
 87.9813727492 1239.18225543 176.839407116 1342.4687378 276 1390 c 0
 325.477400342 1413.71630927 374.984296283 1426.84194913 435.800896252 1426.84194913 c 0
 596.905830299 1426.84194913 677.955784906 1313.85007731 827 1300 c 1
 847.857595984 1329.64017398 868.195102154 1359.64633062 888 1390 c 0
 906.734899687 1418.71375331 928.481592842 1452.34002693 973.930979642 1452.34002693 c 0
EndSplineSet
EndChar

StartChar: W
Encoding: 87 87 96
Width: 2048
VWidth: 0
Flags: H
LayerCount: 2
Fore
SplineSet
93 117 m 25
 330 1206 l 25
 153 1224 l 25
 156 1323 l 25
 405 1347 l 25
 693 1338 l 25
 687 1260 l 25
 483 1251 l 25
 309 366 l 25
 364 351 l 25
 981 1056 l 25
 993 1275 l 25
 858 1278 l 25
 864 1338 l 25
 1110 1365 l 25
 1314 1359 l 25
 1461 1320 l 25
 1377 1239 l 25
 1296 1272 l 25
 1215 1125 l 25
 984 411 l 25
 1023 381 l 25
 1755 1236 l 25
 1608 1257 l 25
 1608 1344 l 25
 1821 1368 l 25
 2048 1365 l 25
 2073 1338 l 25
 2070 1263 l 25
 1983 1230 l 25
 1824 1116 l 25
 1566 858 l 25
 1290 534 l 25
 1038 264 l 25
 819 0 l 25
 777 0 l 25
 735 27 l 25
 750 126 l 25
 972 945 l 25
 936 954 l 25
 243 48 l 25
 207 0 l 25
 153 0 l 25
 120 42 l 25
 93 87 l 25
 93 117 l 25
EndSplineSet
EndChar

StartChar: AE
Encoding: 198 198 99
Width: 2048
VWidth: 0
Flags: H
LayerCount: 2
Fore
SplineSet
940 755 m 25
 1190 745 l 25
 1355 1225 l 25
 1300 1240 l 25
 940 755 l 25
300 135 m 25
 865 830 l 25
 1265 1340 l 25
 1335 1420 l 25
 1590 1440 l 25
 1890 1420 l 25
 2075 1365 l 25
 2155 1260 l 25
 2120 1080 l 25
 2048 1085 l 25
 2048 1235 l 25
 1855 1305 l 25
 1600 1320 l 25
 1410 800 l 25
 1695 775 l 25
 1800 935 l 25
 1895 895 l 25
 1795 505 l 25
 1715 505 l 25
 1725 665 l 25
 1375 670 l 25
 1200 100 l 25
 1745 100 l 25
 1870 190 l 25
 1930 305 l 25
 1980 315 l 25
 1985 130 l 25
 1945 30 l 25
 1840 -25 l 25
 1545 -25 l 25
 1105 0 l 25
 765 -25 l 25
 780 75 l 25
 985 120 l 25
 1180 640 l 25
 850 665 l 25
 455 125 l 25
 575 100 l 25
 530 0 l 25
 55 0 l 25
 80 110 l 25
 300 135 l 25
EndSplineSet
EndChar

